<svg width="100" height="100" viewBox="0 0 100 100" fill="none" xmlns="http://www.w3.org/2000/svg">
<path d="M80.3818 53.579C78.4033 51.6512 73.736 50.9917 73.3809 54.6951V54.7458C73.2287 56.7751 74.8014 58.8043 76.7291 59.4131C77.8452 59.7682 79.1135 59.7175 80.2296 59.3116C81.4471 58.9058 82.0559 57.7897 81.853 56.5214C81.7008 55.5068 81.1427 54.2892 80.3818 53.579ZM79.9252 58.5506C78.5555 59.1594 76.9321 58.9058 75.7653 58.0433C75.1057 57.536 74.1419 56.2677 74.1926 55.0502C74.1926 54.1878 74.4462 53.4268 75.3087 53.1224C78.2511 52.2092 81.0413 54.2892 80.9906 57.0794C80.9906 57.8404 80.6354 58.2463 79.9252 58.5506Z" fill="white"/>
<path d="M97.9348 58.8043C97.4782 57.0287 96.9709 55.2531 96.4636 53.4775C95.6011 50.3829 94.4343 47.3898 92.5065 44.7518C91.0861 42.7732 88.3466 41.3528 87.1797 39.425C86.5202 38.3596 86.8246 36.4826 86.5202 35.265C86.1651 33.5909 85.5056 31.9675 84.2881 30.75C82.0052 28.3656 78.8091 28.67 76.2218 30.3441C74.5477 28.8222 72.6199 27.7568 70.2863 28.0105C68.0541 28.2641 66.0756 29.7353 65.0102 31.6631C64.3507 16.7482 53.2913 4.6234 38.1227 3.10146C37.311 3.05073 36.4993 3 35.6876 3C30.4116 3 25.5921 4.67413 22.0409 7.76873C19.0985 10.3053 17.12 13.9579 16.6127 17.7628C16.3083 19.9442 16.7141 23.5461 18.1346 25.829C18.997 27.2495 20.4682 28.2641 22.0916 28.5685C21.5843 28.8729 21.0263 29.1266 20.519 29.4309C17.678 31.0036 14.6849 32.627 11.8947 34.707C3.77769 40.5918 -0.63592 50.2307 0.0743163 60.377C0.784553 70.5739 6.56791 79.4519 15.5473 84.1699C18.439 85.6918 21.6858 86.9094 25.7443 87.8733C27.5199 88.3298 28.1794 88.7357 30.0564 90.6128C31.1725 91.7288 32.2886 92.7435 33.354 93.7074C34.4193 94.6712 35.5354 95.3308 36.753 95.6351C39.6954 96.4468 42.8914 96.2946 45.8846 96.3961C49.1314 96.4976 52.3782 96.5483 55.625 96.5483C58.0601 96.5483 60.6981 96.802 63.0317 95.9395C63.3361 95.8381 67.0395 93.5552 66.4814 92.9971C68.7643 94.9756 71.5546 96.3961 74.2433 96.3961C75.0043 96.3961 75.7652 96.2946 76.4247 96.0917C78.2511 95.5844 79.7223 94.2654 80.3818 92.5913C81.0413 90.9171 80.8891 89.0401 79.9759 87.4167C79.5193 86.605 78.9613 86.0469 78.6062 85.6918C77.8959 85.0323 76.932 83.2567 76.4755 78.8939C76.374 77.727 76.374 76.408 76.374 75.0383C76.8306 75.1397 77.5916 75.2412 79.1135 75.2412C79.1642 75.2412 79.215 75.2412 79.2657 75.2412C83.4764 75.2412 90.1222 74.5817 94.485 71.8422C97.1231 70.2188 98.9494 67.8852 99.0001 64.4862C99.1016 62.6599 98.3913 60.5799 97.9348 58.8043ZM76.8813 38.1567C77.2364 37.4972 77.5916 36.8377 77.9974 36.2289C78.4033 35.6202 79.9759 33.0836 80.8891 34.0982C81.1935 34.4026 81.3457 34.9099 81.4471 35.3158C81.5993 35.8231 81.7515 36.3304 81.853 36.8884C82.1574 38.4104 82.2588 39.9323 82.411 41.505C82.411 41.5557 82.411 41.6572 82.3603 41.7586C81.2442 41.4035 80.2296 40.9469 79.1642 40.6933C78.0989 40.4396 77.0335 40.2874 75.8667 40.1352C76.0189 40.0845 76.7799 38.3089 76.8813 38.1567ZM77.3379 70.1174C73.3301 69.7115 70.337 67.2257 67.6482 64.3847C67.3946 64.1311 65.3653 61.696 65.2132 61.7467C64.9088 61.8989 66.4814 64.1311 66.6336 64.334C67.699 65.7037 68.6121 66.9213 69.8804 68.0881C70.1848 68.3925 71.1994 69.2042 71.1994 69.2042C71.1994 69.2042 71.1994 70.0666 71.1994 70.2696C71.4024 73.77 70.9965 75.9514 71.3516 79.5026C71.7067 82.8509 72.4677 87.0616 75.055 89.4459C75.2579 89.5981 75.4101 89.8011 75.5623 90.0547C75.8667 90.6128 75.6638 91.1201 75.0043 91.323C71.8589 92.2362 66.7858 87.2138 66.4814 84.1699C66.4307 83.6118 66.938 83.0538 67.0902 82.4958C69.9819 72.6539 60.6473 67.4286 52.5811 68.7983C47.9138 69.61 42.3334 74.0744 42.1305 78.7417C44.9207 75.0383 46.747 71.4871 51.5665 69.9652C58.7703 67.6315 68.2063 72.8061 66.6843 81.2275C66.3292 83.1553 65.2131 84.9816 63.6405 86.1991C61.9664 87.4674 59.3283 87.163 57.9079 88.685C58.3644 88.8879 58.821 88.8879 59.3283 88.8372C59.9371 88.8372 60.5459 88.8372 61.0532 89.0401C61.6112 89.243 62.0678 89.7503 62.0678 90.3591C62.0678 91.7288 59.1761 91.6274 58.3137 91.6274C54.7625 91.6274 51.2113 91.5259 47.6602 91.4245C44.667 91.323 41.0651 91.6274 38.1734 90.8157C37.6661 90.6635 37.2095 90.3084 36.8037 89.9532C35.7383 89.0401 34.7237 88.0255 33.7598 87.0616C31.5784 84.8801 30.1072 83.7133 27.0633 82.9523C23.918 82.1914 20.8741 81.1768 18.0332 79.6548C2.30649 71.3856 0.68309 49.2161 15.04 38.7655C18.6927 36.026 22.9541 33.9968 26.9618 31.6124C28.5345 30.6992 30.1072 29.6846 31.1725 28.2134C35.5354 22.43 26.9111 16.7481 23.8165 22.8359C23.715 23.0895 23.5629 23.3432 23.3599 23.4447C23.0555 23.5969 22.7004 23.3939 22.5482 23.0895C21.8887 21.9735 21.5336 19.6398 21.6858 18.3715C22.0409 15.7335 23.4614 13.2477 25.4399 11.5228C28.7374 8.68189 33.354 7.66727 37.6661 8.12385C51.7187 9.49359 61.2561 21.6691 59.8864 35.6709C59.2269 42.4689 55.8786 48.9117 50.704 53.3761C47.5587 56.0648 43.9061 57.9926 40.1519 59.616C36.6515 61.0872 33.1003 61.8989 30.7667 65.1457C28.0272 68.8998 27.4184 74.3788 30.1579 78.3358C30.6652 79.046 31.0203 79.8577 31.5276 80.5173C31.8828 75.3934 31.0203 70.7261 34.3179 66.2111C36.1949 63.6238 39.0359 61.7467 42.029 60.5292C46.0368 58.9058 50.3489 58.6014 54.0523 56.2677C59.6834 52.7673 61.0025 45.5635 66.3292 42.0123C66.7858 41.7079 67.3439 41.4542 67.699 41.0484C67.9526 40.7947 67.9526 40.2874 68.0541 39.9323C68.4599 38.2582 68.8151 36.5333 69.2716 34.8592C69.4746 34.1489 69.8804 33.4894 70.6414 33.1343C70.9458 33.0329 71.4024 32.9821 71.656 33.0836C72.1126 33.3372 72.5692 33.6416 72.9243 34.0475C74.4462 35.8231 75.3086 40.5918 75.3086 40.6425C75.3086 40.5918 76.6277 40.7947 76.7291 40.7947C79.012 41.2006 81.2442 41.9108 83.2735 43.0269C85.0998 43.9908 86.7232 45.3098 87.9914 46.9332C91.289 50.9917 92.0499 56.5214 93.5211 61.3916C93.6226 61.7467 93.8255 62.7106 93.8255 62.7106C93.8255 62.7106 93.3182 62.8121 92.8616 63.0657C92.3543 63.3701 91.8977 63.6745 91.4412 64.0296C89.6656 65.653 90.7817 67.6315 90.7817 67.6315C90.7817 67.6315 85.5564 70.9798 77.3379 70.1174ZM91.4919 67.3271C90.2744 65.7545 91.8977 63.9282 93.8255 63.3194C94.2314 65.1457 93.4197 66.1603 91.4919 67.3271Z" fill="white"/>
</svg>
