<svg xmlns="http://www.w3.org/2000/svg" xmlns:xlink="http://www.w3.org/1999/xlink" viewBox="0 0 100 100"><defs><clipPath id="b"><rect width="100" height="100"/></clipPath></defs><g id="a" clip-path="url(#b)"><g transform="translate(6 -1)"><path d="M-4226.558-475a9.341,9.341,0,0,1-4.817-1.44c-2.831-1.672-12.624-7.307-21.264-12.278l-.143-.082-.138-.079c-5.667-3.261-11.021-6.341-13.777-7.939a8.494,8.494,0,0,1-3.264-3.221A8.907,8.907,0,0,1-4271-504.4q0-10.3,0-20.6t0-20.6a8.227,8.227,0,0,1,4.3-7.579c2.786-1.615,8.168-4.712,13.866-7.991,8.716-5.015,18.594-10.7,21.454-12.388a9.342,9.342,0,0,1,4.816-1.439,9.24,9.24,0,0,1,4.631,1.346c6.652,3.844,13.426,7.747,19.977,11.522l.6.348.8.462c4.633,2.669,9.423,5.43,14.127,8.144a8.523,8.523,0,0,1,3.215,3.136,8.869,8.869,0,0,1,1.087,4.443c0,13.424,0,40.071,0,41.2a8.917,8.917,0,0,1-1.039,4.358,8.494,8.494,0,0,1-3.264,3.22c-5.006,2.889-10.208,5.886-14.8,8.53l-.245.141c-6.711,3.866-13.65,7.864-20.468,11.8A9.241,9.241,0,0,1-4226.558-475Zm.46-76.042a25.946,25.946,0,0,0-16.487,5.822,22.492,22.492,0,0,0-6.09,8.112,30.024,30.024,0,0,0-2.4,12.319,29.96,29.96,0,0,0,2.365,12.253,21.652,21.652,0,0,0,6.023,7.966,23.891,23.891,0,0,0,8.075,4.314,28.7,28.7,0,0,0,8.518,1.3,27.261,27.261,0,0,0,10.9-2.024,17.942,17.942,0,0,0,6.714-4.971,18.444,18.444,0,0,0,3.393-6.27,19.792,19.792,0,0,0,.938-5.92l-13.2-.755a8.315,8.315,0,0,1-2.115,5.6c-1.53,1.6-3.787,2.41-6.706,2.41a8.133,8.133,0,0,1-5.117-1.676,10.53,10.53,0,0,1-3-3.952,21.261,21.261,0,0,1-1.765-8.274,20.148,20.148,0,0,1,1.951-9,9.576,9.576,0,0,1,3.023-3.547,8.509,8.509,0,0,1,4.909-1.429,9.239,9.239,0,0,1,4.739,1.172,7.876,7.876,0,0,1,2.65,2.578,9.858,9.858,0,0,1,1.408,3.751l13.833.1c0-3.038-1.548-7.958-5.008-12.1C-4211.508-546.812-4216.958-551.042-4226.1-551.042Z" transform="translate(4271 576)"/></g></g></svg>