<svg xmlns="http://www.w3.org/2000/svg" xmlns:xlink="http://www.w3.org/1999/xlink" viewBox="0 0 100 100"><defs><clipPath id="a"><circle cx="50" cy="50" r="50"/></clipPath><clipPath id="c"><rect width="100" height="100"/></clipPath></defs><g id="b" clip-path="url(#c)"><g transform="translate(-5 -10)"><g transform="translate(10 10)"><path d="M-419.973-451.875A50,50,0,0,1-375-480a49.922,49.922,0,0,1,39.648,19.532,23.738,23.738,0,0,1-18.242,8.593Z" transform="translate(425 480)"/></g><g transform="translate(10 10)"><path d="M-375-380a50,50,0,0,1-44.973-28.125h66.692a23.693,23.693,0,0,1,18.1,8.367A49.92,49.92,0,0,1-375-380Z" transform="translate(425 480)"/></g><g transform="translate(10 10)"><path d="M-418-415.938A50.015,50.015,0,0,1-420-430a50.015,50.015,0,0,1,2-14.062h63.777A14,14,0,0,1-340.156-430a14.1,14.1,0,0,1-14.062,14.063Z" transform="translate(420 480)"/></g></g></g></svg>