<svg xmlns="http://www.w3.org/2000/svg" xmlns:xlink="http://www.w3.org/1999/xlink" viewBox="0 0 100 100"><defs><clipPath id="b"><rect width="100" height="100"/></clipPath></defs><g id="a" clip-path="url(#b)"><g transform="translate(3.869 -0.046)"><path d="M31.972,17c-13.068-2.38-23.4.112-27.519,7.243-3.073,5.322-2.2,12.379,2.129,19.923a1.341,1.341,0,1,0,2.326-1.334c-3.9-6.794-4.655-12.885-2.134-17.249,3.42-5.925,12.636-8.147,24.717-5.947A1.34,1.34,0,1,0,31.971,17ZM13.378,53.333A83.866,83.866,0,0,0,33.356,69.107C52.312,80.052,72.492,82.977,82.438,76.2a1.34,1.34,0,1,0-1.509-2.215c-8.9,6.07-28.071,3.291-46.232-7.194A81.206,81.206,0,0,1,15.361,51.53a1.34,1.34,0,1,0-1.983,1.8Z" transform="translate(0.706 4.541)"/><path d="M79.257,51.687C87.814,41.579,90.8,31.411,86.693,24.294c-3.024-5.238-9.417-8-17.912-8.113a1.34,1.34,0,1,0-.036,2.68c7.641.1,13.149,2.482,15.627,6.773,3.413,5.912.749,14.979-7.16,24.322a1.34,1.34,0,1,0,2.046,1.731ZM57.267,17.429a83.7,83.7,0,0,0-23.879,9.464C13.818,38.192,1.053,54.851,2.826,66.931a1.34,1.34,0,1,0,2.651-.39C3.9,55.816,16,40.024,34.727,29.215a81.068,81.068,0,0,1,23.1-9.166,1.34,1.34,0,0,0-.562-2.62Z" transform="translate(0.715 4.557)"/><path d="M26.279,78.5C30.755,91,38.072,98.687,46.3,98.687c6,0,11.555-4.091,15.886-11.295a1.34,1.34,0,1,0-2.3-1.381c-3.892,6.474-8.673,10-13.59,10-6.835,0-13.364-6.861-17.5-18.408a1.34,1.34,0,1,0-2.523.9ZM67.145,76.06A84.13,84.13,0,0,0,70.7,51.224c0-22.2-7.769-41.337-18.837-46.251a1.34,1.34,0,1,0-1.088,2.45c9.871,4.383,17.245,22.545,17.245,43.8a81.529,81.529,0,0,1-3.437,24.036,1.34,1.34,0,1,0,2.557.8Zm25.237-1.312a6.414,6.414,0,1,0-6.414,6.414A6.414,6.414,0,0,0,92.382,74.748Zm-2.68,0a3.733,3.733,0,1,1-3.733-3.733A3.733,3.733,0,0,1,89.7,74.748ZM6.545,81.161A6.414,6.414,0,1,0,.131,74.748,6.414,6.414,0,0,0,6.545,81.161Zm0-2.68a3.734,3.734,0,1,1,3.734-3.734,3.734,3.734,0,0,1-3.734,3.734Z" transform="translate(0 1.359)"/><path d="M37.547,12.873A6.414,6.414,0,1,0,31.133,6.46,6.414,6.414,0,0,0,37.547,12.873Zm0-2.68A3.733,3.733,0,1,1,41.28,6.46a3.733,3.733,0,0,1-3.734,3.733Zm.98,46.927A4.641,4.641,0,1,1,42.083,51.6a4.641,4.641,0,0,1-3.557,5.517Z" transform="translate(8.756)"/></g></g></svg>