<svg xmlns="http://www.w3.org/2000/svg" xmlns:xlink="http://www.w3.org/1999/xlink" viewBox="0 0 100 100"><defs><clipPath id="b"><rect width="100" height="100"/></clipPath></defs><g id="a" clip-path="url(#b)"><g transform="translate(0 31.227)"><path d="M7.583,11.278c-.2,0-.245-.1-.147-.243L8.464,9.72A.7.7,0,0,1,9,9.476H26.468c.2,0,.245.146.147.292l-.832,1.266a.746.746,0,0,1-.489.292ZM.2,15.757c-.2,0-.245-.1-.147-.243L1.076,14.2a.7.7,0,0,1,.538-.243h22.31c.2,0,.294.146.245.292l-.391,1.169a.428.428,0,0,1-.44.292Zm11.84,4.479c-.2,0-.245-.146-.147-.292l.685-1.217a.649.649,0,0,1,.489-.292h9.785c.2,0,.294.146.294.341l-.1,1.169a.367.367,0,0,1-.342.341ZM62.819,10.4c-3.082.779-5.186,1.363-8.219,2.142-.734.195-.783.243-1.419-.487a6.543,6.543,0,0,0-2.3-1.85,8.541,8.541,0,0,0-8.855.73,10.342,10.342,0,0,0-4.99,9.251,7.644,7.644,0,0,0,6.6,7.644,9.052,9.052,0,0,0,8.317-3.213c.44-.536.832-1.12,1.321-1.8H43.837c-1.027,0-1.272-.633-.93-1.461.636-1.509,1.81-4.041,2.5-5.307a1.321,1.321,0,0,1,1.223-.779H64.434c-.1,1.315-.1,2.629-.294,3.944a20.711,20.711,0,0,1-4.012,9.543,20.4,20.4,0,0,1-13.944,8.277A17.394,17.394,0,0,1,33.024,33.82a15.277,15.277,0,0,1-6.213-10.809A19.045,19.045,0,0,1,30.969,8.746,21.726,21.726,0,0,1,44.668.323,16.927,16.927,0,0,1,57.633,2.709a15.278,15.278,0,0,1,5.675,6.865C63.6,10.012,63.407,10.255,62.819,10.4Z" transform="translate(0 0)"/><path d="M143.264,37.8a18.408,18.408,0,0,1-11.938-4.284,15.25,15.25,0,0,1-5.284-9.4,18.52,18.52,0,0,1,3.963-14.7,20.528,20.528,0,0,1,13.7-8.13c4.99-.876,9.687-.389,13.944,2.483a15.147,15.147,0,0,1,6.9,10.857,18.738,18.738,0,0,1-5.626,16.5,22.453,22.453,0,0,1-11.742,6.232C145.857,37.6,144.536,37.653,143.264,37.8ZM154.908,18.13a13.944,13.944,0,0,0-.147-1.607,8.058,8.058,0,0,0-9.981-6.475,10.662,10.662,0,0,0-8.562,8.471,8.007,8.007,0,0,0,4.5,9.2,9.009,9.009,0,0,0,7.975-.292,10.654,10.654,0,0,0,6.213-9.3Z" transform="translate(-64.736 -0.473)"/></g></g></svg>