<svg xmlns="http://www.w3.org/2000/svg" xmlns:xlink="http://www.w3.org/1999/xlink" viewBox="0 0 100 100"><defs><clipPath id="a"><rect width="100" height="100" transform="translate(660)" fill="none"/></clipPath><clipPath id="c"><rect width="100" height="100"/></clipPath></defs><g id="b" clip-path="url(#c)"><g transform="translate(-660)" clip-path="url(#a)"><g transform="translate(672.483 -0.37)"><path d="M63.478,240.607s-3.821,2.222,2.72,2.974c7.924.9,11.974.775,20.707-.878a36.047,36.047,0,0,0,5.5,2.687c-19.576,8.39-44.3-.486-28.928-4.782m-2.392-10.949s-4.286,3.173,2.26,3.85c8.465.873,15.15.945,26.717-1.283a11.86,11.86,0,0,0,4.116,2.509c-23.669,6.921-50.031.546-33.093-5.076" transform="translate(-39.208 -162.902)"/><path d="M133.086,98.3c4.824,5.553-1.267,10.551-1.267,10.551s12.248-6.323,6.623-14.24c-5.253-7.383-9.282-11.052,12.528-23.7,0,0-34.234,8.55-17.883,27.39" transform="translate(-91.042 -50.119)"/><path d="M67.934,218.5s2.828,2.33-3.115,4.133c-11.3,3.423-47.03,4.457-56.956.136-3.568-1.552,3.123-3.706,5.228-4.158a13.564,13.564,0,0,1,3.45-.387c-3.968-2.8-25.648,5.489-11.012,7.861,39.913,6.473,72.758-2.914,62.405-7.584m-41.827-30.39s-18.174,4.317-6.436,5.884c4.956.664,14.837.514,24.04-.258,7.522-.634,15.074-1.983,15.074-1.983a31.909,31.909,0,0,0-4.571,2.446c-18.456,4.854-54.11,2.6-43.846-2.369a34.39,34.39,0,0,1,15.739-3.72m32.6,18.224c18.762-9.749,10.087-19.118,4.032-17.856a14.035,14.035,0,0,0-2.146.576,3.419,3.419,0,0,1,1.6-1.236c11.978-4.211,21.19,12.42-3.867,19.007a1.626,1.626,0,0,0,.377-.491" transform="translate(0 -132.696)"/><path d="M105.717.37s10.391,10.394-9.855,26.377c-16.235,12.821-3.7,20.131-.007,28.484-9.476-8.55-16.431-16.077-11.765-23.082C90.938,21.866,109.909,16.88,105.717.37" transform="translate(-58.318)"/><path d="M60.577,322.186c18.009,1.153,45.663-.64,46.318-9.161,0,0-1.259,3.231-14.883,5.8-15.371,2.892-34.328,2.555-45.573.7,0,0,2.3,1.905,14.138,2.664" transform="translate(-32.626 -222.13)"/></g></g></g></svg>