<svg xmlns="http://www.w3.org/2000/svg" xmlns:xlink="http://www.w3.org/1999/xlink" viewBox="0 0 100 100"><defs><clipPath id="b"><rect width="100" height="100"/></clipPath></defs><g id="a" clip-path="url(#b)"><g transform="translate(27.994)"><path d="M411.436,1494.67c-.517,6.571-1.258,11.367-1.988,13.04,0,0-.1-.07-.288-.206,1.832,4.267,1.65,11.569,1.65,11.569l2.679.888s-.544-7.084.215-10.51a6.542,6.542,0,0,1,1.382-2.7c-.1.069-.153.1-.153.1C412.313,1505.645,411.552,1499.966,411.436,1494.67Z" transform="translate(-388.812 -1419.962)"/><path d="M464.508,45.385c-5.25-23.162-17.65-30.776-18.984-33.683A34.972,34.972,0,0,1,442.58,6v.05c1.242,4.8,1.032,43.531,1.171,48.17a249.765,249.765,0,0,1-.567,26.214c.115,5.3.875,10.975,3.5,12.183,0,0,.053-.035.153-.1A33.113,33.113,0,0,0,450.1,89.84l.116-.105C456.506,83.933,468.6,69.316,464.508,45.385Z" transform="translate(-420.561 -5.725)"/><path d="M24.925,75.208a249.8,249.8,0,0,0,.566-26.214c-.139-4.639.071-43.37-1.171-48.17A2.025,2.025,0,0,0,24.213.5c-.15,2.045-.23,2.844-2.173,4.916-3,2.35-18.426,15.286-19.683,41.6C1.186,71.554,20.087,86.175,22.648,88.042c.186.135.289.206.289.206C23.666,86.575,24.409,81.779,24.925,75.208Z" transform="translate(-2.3 -0.5)"/></g></g></svg>