<svg xmlns="http://www.w3.org/2000/svg" xmlns:xlink="http://www.w3.org/1999/xlink" viewBox="0 0 100 100"><defs><clipPath id="a"><rect width="100" height="100" transform="translate(330 220)" fill="none"/></clipPath><clipPath id="c"><rect width="100" height="100"/></clipPath></defs><g id="b" clip-path="url(#c)"><g transform="translate(-330 -220)" clip-path="url(#a)"><g transform="translate(330.976 221)"><path d="M91.214,75.163c-5.386-.134-9.561.4-13.062,1.886-1.01.4-2.626.4-2.761,1.684.539.539.606,1.414,1.077,2.154a15.785,15.785,0,0,0,3.5,4.108c1.414,1.077,2.828,2.154,4.309,3.1,2.626,1.616,5.589,2.559,8.148,4.175,1.482.942,2.962,2.155,4.444,3.165.741.538,1.212,1.414,2.155,1.75v-.2c-.472-.606-.606-1.481-1.077-2.155-.673-.673-1.347-1.279-2.02-1.953a31.937,31.937,0,0,0-7-6.8c-2.155-1.481-6.868-3.5-7.743-5.993l-.135-.134a27.383,27.383,0,0,0,4.646-1.077c2.289-.606,4.376-.471,6.733-1.077,1.077-.269,2.155-.606,3.232-.943V76.24c-1.211-1.212-2.087-2.828-3.366-3.973a89.776,89.776,0,0,0-11.11-8.282c-2.088-1.347-4.781-2.222-7-3.367-.807-.4-2.155-.606-2.625-1.279a27.158,27.158,0,0,1-2.761-5.184c-1.952-3.7-3.838-7.811-5.522-11.716-1.211-2.626-1.952-5.253-3.434-7.676C52.9,23.317,45.36,16.382,33.779,9.581c-2.492-1.414-5.454-2.02-8.619-2.76-1.683-.068-3.367-.2-5.05-.27-1.077-.471-2.155-1.75-3.1-2.357C13.176,1.77,3.277-3.482.449,3.454-1.369,7.83,3.143,12.139,4.691,14.362a31.715,31.715,0,0,1,3.434,5.05c.471,1.144.606,2.357,1.077,3.569A80.844,80.844,0,0,0,12.7,32,32.555,32.555,0,0,0,15.2,36.177c.539.74,1.481,1.077,1.684,2.289-.942,1.347-1.01,3.367-1.549,5.05-2.424,7.609-1.481,17.035,1.953,22.624,1.077,1.683,3.636,5.387,7.07,3.973,3.03-1.212,2.357-5.05,3.232-8.416.2-.809.068-1.347.472-1.886v.135c.943,1.885,1.885,3.7,2.761,5.588a38.451,38.451,0,0,0,8.753,9.023c1.617,1.211,2.9,3.3,4.916,4.04v-.2H44.35A7.445,7.445,0,0,0,42.8,77.048a32.644,32.644,0,0,1-3.5-4.04,86.636,86.636,0,0,1-7.541-12.255c-1.077-2.087-2.02-4.376-2.9-6.463-.4-.809-.4-2.02-1.077-2.424-1.01,1.481-2.491,2.761-3.232,4.578-1.279,2.9-1.414,6.464-1.885,10.167-.269.068-.135,0-.27.135-2.154-.539-2.895-2.761-3.7-4.646-2.02-4.78-2.357-12.456-.606-17.978.471-1.414,2.492-5.858,1.684-7.2-.4-1.279-1.751-2.02-2.492-3.03a27.129,27.129,0,0,1-2.424-4.309c-1.616-3.771-2.424-7.945-4.175-11.716a35.837,35.837,0,0,0-3.367-5.184c-1.279-1.818-2.693-3.1-3.7-5.252-.336-.74-.808-1.952-.269-2.761a1.072,1.072,0,0,1,.943-.875c.875-.741,3.367.2,4.242.606A34.32,34.32,0,0,1,15.2,7.763c.942.673,1.952,1.953,3.164,2.29h1.414c2.155.471,4.578.135,6.6.74a43.029,43.029,0,0,1,9.7,4.646A59.737,59.737,0,0,1,57.076,38.466c.808,1.548,1.144,2.963,1.885,4.578,1.415,3.3,3.165,6.666,4.578,9.9,1.414,3.164,2.761,6.4,4.781,9.023,1.01,1.413,5.05,2.154,6.868,2.9a47.752,47.752,0,0,1,4.646,1.885c2.289,1.413,4.578,3.03,6.733,4.578,1.077.808,4.444,2.492,4.646,3.838Z" transform="translate(0 0)"/><path d="M53.814,43.022a10.67,10.67,0,0,0-2.76.337v.135h.135a21.7,21.7,0,0,0,2.154,2.761c.539,1.077,1.01,2.155,1.549,3.232l.134-.135a3.8,3.8,0,0,0,1.414-3.367,15.077,15.077,0,0,1-.808-1.414C55.229,43.9,54.353,43.561,53.814,43.022Z" transform="translate(-31.281 -26.372)"/></g></g></g></svg>