<svg xmlns="http://www.w3.org/2000/svg" xmlns:xlink="http://www.w3.org/1999/xlink" viewBox="0 0 100 100"><defs><clipPath id="b"><rect width="100" height="100"/></clipPath></defs><g id="a" clip-path="url(#b)"><g transform="translate(-0.145 -0.072)"><path d="M49.785.072c-25.386,0-23.8,11.067-23.8,11.067L26.012,22.6H50.237v3.442H16.39S.145,24.194.145,49.943,14.324,74.779,14.324,74.779h8.462V62.83s-.456-14.253,13.952-14.253H60.766s13.5.219,13.5-13.115V13.415S76.315.072,49.785.072ZM36.427,7.782A4.343,4.343,0,0,1,39.51,9.064a4.4,4.4,0,0,1,0,6.2,4.348,4.348,0,0,1-6.166,0,4.4,4.4,0,0,1,0-6.2,4.343,4.343,0,0,1,3.083-1.282Z"/><path d="M90.662,139.031c25.386,0,23.8-11.067,23.8-11.067l-.028-11.465H90.208v-3.442h33.848S140.3,114.91,140.3,89.16s-14.179-24.836-14.179-24.836H117.66V76.273s.456,14.253-13.952,14.253H79.68s-13.5-.219-13.5,13.115v22.048s-2.05,13.342,24.48,13.342Zm13.358-7.709a4.343,4.343,0,0,1-3.083-1.282,4.4,4.4,0,0,1,0-6.2,4.348,4.348,0,0,1,6.166,0,4.4,4.4,0,0,1,0,6.2,4.343,4.343,0,0,1-3.083,1.282Z" transform="translate(-40.156 -38.959)"/></g></g></svg>