<svg xmlns="http://www.w3.org/2000/svg" xmlns:xlink="http://www.w3.org/1999/xlink" viewBox="0 0 100 100"><defs><clipPath id="b"><rect width="100" height="100"/></clipPath></defs><g id="a" clip-path="url(#b)"><g transform="translate(-14.754 -8.785)"><path d="M69.6,88.082h0c-4.867,0-10.99-2.962-17.24-8.34-.92-.794-1.821-1.616-2.676-2.442-.7.677-1.394,1.317-2.066,1.9a44.025,44.025,0,0,1-9.595,6.538,20.089,20.089,0,0,1-8.6,2.3A9.332,9.332,0,0,1,24.7,86.882c-2.5-1.442-4.248-4.308-5.053-8.29A38.1,38.1,0,0,1,20,64.35c.229-1.2.491-2.389.778-3.534-.894-.255-1.8-.537-2.677-.837A39.515,39.515,0,0,1,4.958,52.87C1.714,50.026,0,46.944,0,43.957c0-2.886,1.611-5.831,4.657-8.518a38.119,38.119,0,0,1,12.518-6.8c1.149-.4,2.382-.788,3.665-1.152-.274-1.1-.52-2.2-.732-3.28a39.519,39.519,0,0,1-.491-14.518c.773-4.069,2.5-6.986,5.007-8.435A9.166,9.166,0,0,1,29.278.1a19.978,19.978,0,0,1,8.754,2.429,46.56,46.56,0,0,1,9.875,6.894c.556.5,1.108,1,1.641,1.514.81-.782,1.64-1.543,2.465-2.261A44.5,44.5,0,0,1,61.354,2.26,19.11,19.11,0,0,1,69.632,0a8.93,8.93,0,0,1,4.521,1.121c2.618,1.509,4.416,4.586,5.2,8.9A41.541,41.541,0,0,1,78.7,25.371c-.15.72-.316,1.452-.493,2.174,1.072.308,2.145.647,3.187,1A39.522,39.522,0,0,1,94.209,35.4C97.344,38.105,99,41.065,99,43.957c0,3.021-1.767,6.116-5.11,8.95a41.536,41.536,0,0,1-13.623,7.107c-.593.2-1.212.389-1.841.574.231.929.43,1.82.594,2.646a39.506,39.506,0,0,1,.434,14.939c-.836,4.232-2.645,7.259-5.229,8.756A9.109,9.109,0,0,1,69.6,88.082Zm4.737-26.42h0a98.782,98.782,0,0,1-13.408,2.067,99.56,99.56,0,0,1-8.3,10.537c.821.791,1.659,1.555,2.489,2.27,5.331,4.587,10.734,7.325,14.456,7.325a5.005,5.005,0,0,0,2.532-.592c1.519-.879,2.67-3.062,3.241-6.145a35.726,35.726,0,0,0-.476-13.066c-.15-.759-.33-1.565-.535-2.395Zm-49.454.189h0c-.269,1.077-.512,2.182-.723,3.287A35.742,35.742,0,0,0,23.648,77c.492,3.118,1.614,5.326,3.16,6.217a5.2,5.2,0,0,0,2.616.594,13.233,13.233,0,0,0,4.327-.855,35.778,35.778,0,0,0,11.083-6.938c.646-.567,1.281-1.151,1.885-1.737a102.756,102.756,0,0,1-8.5-10.5,99.582,99.582,0,0,1-13.341-1.931ZM43.708,64.11h0c1.944,2.562,3.948,4.961,5.957,7.129a89.962,89.962,0,0,0,5.811-7.149c-1.989.088-4,.132-5.976.132s-3.915-.038-5.793-.112ZM35.686,36.078c-1.493,2.59-2.91,5.275-4.211,7.981,1.3,2.69,2.718,5.375,4.224,7.977s3.137,5.19,4.838,7.675c2.9.187,5.919.283,8.964.283s6.109-.107,9.066-.318c1.659-2.493,3.257-5.071,4.749-7.663s2.933-5.3,4.255-8.014c-1.334-2.686-2.77-5.359-4.269-7.944s-3.1-5.144-4.769-7.617c-2.976-.226-6.015-.341-9.032-.341s-6.041.114-9.014.339c-1.685,2.468-3.3,5.039-4.8,7.642ZM29.231,49.032h0c-1.258,2.986-2.337,5.927-3.208,8.74a90.292,90.292,0,0,0,9.124,1.466c-1.079-1.674-2.125-3.385-3.108-5.084-.963-1.663-1.908-3.387-2.808-5.123Zm40.62-.152h0c-.918,1.771-1.885,3.535-2.872,5.245-.969,1.681-1.991,3.376-3.039,5.038a89.778,89.778,0,0,0,9.236-1.574,90.056,90.056,0,0,0-3.325-8.709ZM21.975,31.557h0c-1.141.322-2.287.683-3.407,1.073A35.759,35.759,0,0,0,8.037,38.114C5.581,40.1,4.229,42.173,4.229,43.957c0,1.754,1.313,3.844,3.7,5.886a35.76,35.76,0,0,0,11.547,6.133c.8.272,1.621.53,2.444.765A102.829,102.829,0,0,1,26.8,44.06a101.211,101.211,0,0,1-4.825-12.5Zm55.1.062a99.177,99.177,0,0,1-4.818,12.359A99.315,99.315,0,0,1,77.274,56.52c.612-.182,1.156-.352,1.662-.52a39.334,39.334,0,0,0,11.593-5.8c2.735-2.128,4.242-4.344,4.242-6.239,0-1.777-1.4-3.861-3.939-5.869a37.31,37.31,0,0,0-10.81-5.54c-.912-.315-1.9-.627-2.943-.929ZM63.952,28.986c1.041,1.632,2.054,3.3,3.01,4.951.985,1.7,1.943,3.433,2.848,5.152a90.091,90.091,0,0,0,3.169-8.525c-2.847-.65-5.884-1.182-9.027-1.578Zm-28.9-.008c-3.143.392-6.163.911-8.976,1.541.861,2.774,1.919,5.657,3.146,8.567.888-1.724,1.829-3.446,2.795-5.12s1.99-3.359,3.035-4.988ZM69.607,4.218h0c-3.781,0-9.321,2.857-14.819,7.643-.777.678-1.543,1.381-2.276,2.088A99.283,99.283,0,0,1,60.88,24.394a101.31,101.31,0,0,1,13.237,2.091c.157-.637.307-1.3.445-1.968a39.318,39.318,0,0,0,.763-12.941c-.477-3.433-1.643-5.845-3.285-6.792a4.824,4.824,0,0,0-2.432-.565ZM24.259,23.391c.2,1.008.426,2.034.68,3.051A103.153,103.153,0,0,1,38.15,24.388a101.191,101.191,0,0,1,8.433-10.436c-.506-.483-1.006-.945-1.485-1.371a43.636,43.636,0,0,0-8.754-6.168,16.316,16.316,0,0,0-7.038-2.1,5.073,5.073,0,0,0-2.563.6C25.2,5.8,24.1,8.056,23.636,11.26a37.316,37.316,0,0,0,.622,12.132Zm25.233.477c1.952,0,3.931.047,5.882.139a90.833,90.833,0,0,0-5.825-7.034c-1.982,2.14-3.959,4.505-5.875,7.03C45.614,23.914,47.572,23.868,49.491,23.868Z" transform="translate(15.243 14.515)"/><path d="M116.884,94.665a8.841,8.841,0,1,1-8.84,8.84,8.84,8.84,0,0,1,8.84-8.84" transform="translate(-52.141 -45.033)"/></g></g></svg>