<svg xmlns="http://www.w3.org/2000/svg" xmlns:xlink="http://www.w3.org/1999/xlink" viewBox="0 0 100 100"><defs><clipPath id="b"><rect width="100" height="100"/></clipPath></defs><g id="a" clip-path="url(#b)"><path d="M-3833-468h-100V-568h100v100Zm-35.437-47.092V-476.8h30.757v-7.975h-20.76v-7.211l18.247-.054v-7.921h-18.247v-7.157h20.214v-7.975Zm-29.554,27.7h7.429l5.572,10.6h11.308l-7.974-12.51c4.467-2.316,6.827-6.585,6.827-12.346,0-8.54-5.814-13.439-15.951-13.439h-17.209V-476.8h10v-10.6Zm7.266-7.975h-7.266v-11.746h7.266a6.867,6.867,0,0,1,4.711,1.482,5.5,5.5,0,0,1,1.68,4.309,5.743,5.743,0,0,1-1.68,4.432A6.744,6.744,0,0,1-3890.726-495.37Z" transform="translate(3933 568)"/></g></svg>