<svg xmlns="http://www.w3.org/2000/svg" xmlns:xlink="http://www.w3.org/1999/xlink" viewBox="0 0 100 100"><defs><clipPath id="b"><rect width="100" height="100"/></clipPath></defs><g id="a" clip-path="url(#b)"><path d="M-3717-468h-100V-568h100v100Zm-32.95-22.1-2.825,1.65-3.749,2.175-.95.6a18.026,18.026,0,0,0,2.6,3.85A18.816,18.816,0,0,0-3744.7-476.5a28.589,28.589,0,0,0,4.291.274,22.141,22.141,0,0,0,3.333-.2c5.536-.918,9.47-3.732,11.076-7.925a14.606,14.606,0,0,0-1.175-12.174c-1.865-2.885-4.924-4.9-12.125-8-3.887-1.7-5.134-2.543-5.8-3.9a3.956,3.956,0,0,1-.449-1.9,3.791,3.791,0,0,1,1.229-2.937,4.833,4.833,0,0,1,3.268-1.081c.165,0,.334.006.5.017a5.7,5.7,0,0,1,4.7,2.8c.348.566.731,1.009.872,1.009a.045.045,0,0,0,.028-.009c2.6-1.608,6.95-4.551,6.95-4.7a15.784,15.784,0,0,0-2.4-3.2A12.172,12.172,0,0,0-3736.65-522l.05-.05a22.712,22.712,0,0,0-4.848-.443,15.447,15.447,0,0,0-2.751.193,13.461,13.461,0,0,0-6.747,3.25,11.845,11.845,0,0,0-3.5,6.25,19.186,19.186,0,0,0,.149,6.425,14.218,14.218,0,0,0,2.75,5c2.116,2.219,4.406,3.617,9.425,5.75,4.574,2.033,6.122,2.931,6.9,4a3.847,3.847,0,0,1,.75,2.55,3.74,3.74,0,0,1-1.325,3,7.5,7.5,0,0,1-4.994,1.623,10.558,10.558,0,0,1-4.756-1.123,13.535,13.535,0,0,1-3.75-3.65l-.651-.875Zm-32.125-23.651v37h9.225v-37h13v-4a30.7,30.7,0,0,0-.1-4.125c-.082-.083-9.589-.1-17.55-.1l-17.5.076v4.1l-.075-.026v4.075Z" transform="translate(3817 568)"/></g></svg>