<svg xmlns="http://www.w3.org/2000/svg" xmlns:xlink="http://www.w3.org/1999/xlink" viewBox="0 0 100 100">
  <defs>
    <clipPath id="clip-unknown">
      <rect width="100" height="100"/>
    </clipPath>
  </defs>
  <g id="unknown" clip-path="url(#clip-unknown)">
    <path id="OOjs_UI_icon_language-ltr" d="M100,82H92.8a3.05,3.05,0,0,1-2-.6,4.05,4.05,0,0,1-1.15-1.55L85,67H60L55,79.7a3.85,3.85,0,0,1-1.1,1.5,2.95,2.95,0,0,1-2,.7H45L67.75,24.55H77.2ZM82.35,60.45,74.45,39.5a58.1,58.1,0,0,1-1.95-6.2q-.45,1.85-.95,3.45l-.95,2.8L62.7,60.5Zm-31.5-7.9A67.15,67.15,0,0,1,36.3,45.5,57.3,57.3,0,0,0,50.35,18.65H60V12H36.55a20,20,0,0,0-1-2.8C34.35,5.95,33,2,33,2L25.65,4.5s2,4.45,3,7.5H0v6.65H10.75A56.15,56.15,0,0,0,25,45.5,85.95,85.95,0,0,1,0,56q2.8,4.1,4.35,6.9a116.4,116.4,0,0,0,26.1-12.55,78.2,78.2,0,0,0,17.8,8.85Zm-32.7-33.9H42.7A40.55,40.55,0,0,1,30.45,40.9a45.55,45.55,0,0,1-12.3-22.25Z" transform="translate(0 8)"/>
  </g>
</svg>
