<svg xmlns="http://www.w3.org/2000/svg" width="100" height="56.341" viewBox="0 0 100 56.341">
  <g id="android" transform="translate(159.681 41.68)">
    <path id="Path_65" data-name="Path 65" d="M175.332,144.413a4.165,4.165,0,1,1,4.164-4.165,4.17,4.17,0,0,1-4.164,4.165m-46.025,0a4.165,4.165,0,1,1,4.164-4.165,4.17,4.17,0,0,1-4.164,4.165m47.519-25.083,8.322-14.413a1.731,1.731,0,1,0-3-1.731l-8.426,14.6a52.313,52.313,0,0,0-42.806,0l-8.427-14.6a1.731,1.731,0,1,0-3,1.731l8.322,14.413a49.137,49.137,0,0,0-25.494,39.332h100a49.144,49.144,0,0,0-25.494-39.332" transform="translate(-262 -144)"/>
  </g>
</svg>
