<svg xmlns="http://www.w3.org/2000/svg" xmlns:xlink="http://www.w3.org/1999/xlink" width="100" height="100" viewBox="0 0 100 100"><defs><clipPath id="b"><rect width="100" height="100"/></clipPath></defs><g id="a" clip-path="url(#b)"><g transform="translate(160 64)"><path d="M174.6,143.992a4.123,4.123,0,1,1,4.122-4.124,4.128,4.128,0,0,1-4.122,4.124m-45.565,0a4.123,4.123,0,1,1,4.122-4.124,4.128,4.128,0,0,1-4.122,4.124M176.08,119.16l8.239-14.269a1.714,1.714,0,1,0-2.969-1.714l-8.342,14.45a51.79,51.79,0,0,0-42.378,0l-8.342-14.45a1.714,1.714,0,1,0-2.969,1.714l8.239,14.269A48.646,48.646,0,0,0,102.319,158.1h99a48.652,48.652,0,0,0-25.239-38.939" transform="translate(-262 -144)"/></g></g></svg>