<svg xmlns="http://www.w3.org/2000/svg" width="81.425" height="100" viewBox="0 0 81.425 100">
  <path id="apple" d="M68,53.127C68.144,68.26,81.28,73.3,81.425,73.36A54.728,54.728,0,0,1,74.5,87.583C70.337,93.675,66.011,99.744,59.2,99.87c-6.7.123-8.849-3.97-16.5-3.97s-10.045,3.845-16.383,4.094c-6.578.249-11.587-6.587-15.789-12.657C1.933,74.921-4.63,52.254,4.182,36.953A24.48,24.48,0,0,1,24.874,24.42c6.459-.123,12.555,4.345,16.5,4.345s11.355-5.374,19.143-4.585c3.261.136,12.413,1.317,18.29,9.919C78.337,34.393,67.89,40.475,68,53.127M55.42,15.967C58.912,11.739,61.262,5.855,60.621,0,55.587.2,49.5,3.354,45.89,7.579c-3.236,3.741-6.069,9.729-5.3,15.468,5.611.434,11.342-2.851,14.834-7.081" transform="translate(0)"/>
</svg>
