<svg xmlns="http://www.w3.org/2000/svg" xmlns:xlink="http://www.w3.org/1999/xlink" width="100" height="100" viewBox="0 0 100 100"><defs><clipPath id="b"><rect width="100" height="100"/></clipPath></defs><g id="a" clip-path="url(#b)"><path d="M67.324,52.6c.139,14.982,13.143,19.968,13.287,20.031a54.181,54.181,0,0,1-6.851,14.08c-4.126,6.031-8.409,12.04-15.155,12.164-6.629.122-8.76-3.931-16.339-3.931s-9.945,3.806-16.22,4.053c-6.512.247-11.471-6.521-15.631-12.53-8.5-12.291-15-34.732-6.275-49.88A24.235,24.235,0,0,1,24.625,24.175c6.394-.122,12.43,4.3,16.339,4.3s11.241-5.32,18.952-4.539c3.228.134,12.289,1.3,18.107,9.82-.469.291-10.811,6.312-10.7,18.837M54.866,15.807C58.323,11.622,60.65,5.8,60.015,0,55.032.2,49.006,3.321,45.431,7.5c-3.2,3.7-6.009,9.632-5.252,15.314,5.554.43,11.229-2.823,14.686-7.01" transform="translate(10.111 0.281)"/></g></svg>