<svg xmlns="http://www.w3.org/2000/svg" width="100" height="78.704" viewBox="0 0 100 78.704">
  <path id="aws" d="M30.754,52.36,21.593,56.3l8.484,3.628L39.915,56.3,30.754,52.36ZM16.98,57.279l-.307,17.709,13.4,5.9V62.505l-13.1-5.226Zm27.547,0L32.414,61.891V79.23l12.113-4.919V57.279ZM58.977,2.186,49.753,6.121,58.3,9.75l9.838-3.628L58.977,2.186ZM46.188,7.414V25.123l11.436,3.321.37-16.111L46.188,7.414ZM71.767,8.4,60.945,13.01v17.4l10.822-4.919V8.4ZM15.658,27.11,6.5,31.045l8.484,3.628,9.838-3.628L15.658,27.11ZM1.885,32.029,1.578,49.737l13.4,5.9V37.255Zm27.547,0L17.319,36.641V53.979L29.432,49.06Zm15.741-5.572-9.161,3.935L44.5,34.02l9.838-3.628-9.161-3.935ZM31.4,31.376l-.307,17.708,13.4,5.9V36.6Zm27.547,0L46.833,35.988V53.326l12.113-4.919ZM87.8,2.186,78.644,6.121l8.484,3.628,9.838-3.628ZM74.031,7.105l-.307,17.708,13.4,5.9V12.333l-13.1-5.228Zm27.547,0L89.465,11.717V29.056l12.113-4.919V7.105Z" transform="translate(-1.578 -2.186)"/>
</svg>
