<svg xmlns="http://www.w3.org/2000/svg" xmlns:xlink="http://www.w3.org/1999/xlink" width="100" height="100" viewBox="0 0 100 100"><defs><clipPath id="b"><rect width="100" height="100"/></clipPath></defs><g id="a" clip-path="url(#b)"><path d="M30.754,52.549,21.593,56.5l8.484,3.642L39.915,56.5l-9.161-3.95ZM16.98,57.486l-.307,17.775,13.4,5.925V62.732l-13.1-5.246Zm27.547,0L32.414,62.115v17.4l12.113-4.938v-17.1Zm14.45-55.3-9.224,3.95L58.3,9.778l9.838-3.642-9.161-3.95ZM46.188,7.434V25.209l11.436,3.334.37-16.171L46.188,7.434Zm25.579.987L60.945,13.051V30.517L71.767,25.58V8.421ZM15.658,27.2,6.5,31.153,14.981,34.8l9.838-3.642L15.658,27.2ZM1.885,32.141,1.578,49.916l13.4,5.925V37.386Zm27.547,0L17.319,36.77v17.4l12.113-4.937Zm15.741-5.593L36.011,30.5,44.5,34.14,54.334,30.5l-9.161-3.95ZM31.4,31.485,31.092,49.26l13.4,5.925V36.733Zm27.547,0L46.833,36.115v17.4l12.113-4.938ZM87.8,2.186l-9.161,3.95,8.484,3.642,9.838-3.642ZM74.031,7.123,73.725,24.9l13.4,5.925V12.371l-13.1-5.248Zm27.547,0L89.465,11.753v17.4l12.113-4.937V7.123Z" transform="translate(-1.578 7.814)"/></g></svg>