<svg xmlns="http://www.w3.org/2000/svg" xmlns:xlink="http://www.w3.org/1999/xlink" width="100" height="100" viewBox="0 0 100 100"><defs><clipPath id="b"><rect width="100" height="100"/></clipPath></defs><g id="a" clip-path="url(#b)"><g transform="translate(6 -0.268)"><path d="M-4121.514-475.732a9.486,9.486,0,0,1-4.822-1.441c-2.961-1.746-13.69-7.912-21.524-12.415l-.181-.1c-5.334-3.066-10.85-6.236-13.652-7.858a8.505,8.505,0,0,1-3.267-3.222,8.908,8.908,0,0,1-1.04-4.357q0-10.3,0-20.6t0-20.6a8.223,8.223,0,0,1,4.308-7.579c2.721-1.576,7.981-4.6,13.551-7.8l.136-.078.153-.088.282-.162.13-.075c8.552-4.916,18.244-10.488,21.1-12.173a9.358,9.358,0,0,1,4.82-1.44,9.248,9.248,0,0,1,4.636,1.347c6.468,3.735,13.176,7.6,19.1,11l.078.045.841.484.671.386c4.075,2.345,9.447,5.438,14.857,8.558a8.531,8.531,0,0,1,3.219,3.136,8.869,8.869,0,0,1,1.087,4.442c0,13.676,0,40.925,0,41.2a8.9,8.9,0,0,1-1.039,4.358,8.515,8.515,0,0,1-3.267,3.221c-4.808,2.772-9.8,5.642-14.62,8.419l-.323.186-.583.336c-6.207,3.572-13.241,7.621-20.02,11.535A9.259,9.259,0,0,1-4121.514-475.732Zm0-79.548a29.363,29.363,0,0,0-11.5,2.322,29.442,29.442,0,0,0-9.392,6.332,29.446,29.446,0,0,0-6.332,9.392,29.369,29.369,0,0,0-2.322,11.5,29.545,29.545,0,0,0,3.912,14.7,29.716,29.716,0,0,0,10.617,10.748,29.519,29.519,0,0,0,15.017,4.1,29.513,29.513,0,0,0,15.042-4.111,29.717,29.717,0,0,0,10.62-10.783l-12.841-7.439a14.8,14.8,0,0,1-5.292,5.427,14.68,14.68,0,0,1-7.528,2.071,14.683,14.683,0,0,1-7.486-2.047,14.8,14.8,0,0,1-5.286-5.367,14.649,14.649,0,0,1-1.94-7.3,14.616,14.616,0,0,1,4.31-10.4,14.613,14.613,0,0,1,10.4-4.31,14.685,14.685,0,0,1,7.444,2.022,14.818,14.818,0,0,1,5.281,5.309l12.86-7.4a29.727,29.727,0,0,0-10.611-10.689A29.514,29.514,0,0,0-4121.513-555.28Zm35.332,31.207v3.385h3.385v-3.385h3.385v-3.384h-3.385v-3.384h-3.385v3.384h-3.385v3.384Zm-12.349,0v3.385h3.385v-3.385h3.384v-3.384h-3.384v-3.384h-3.385v3.384h-3.384v3.384Z" transform="translate(4166 576)"/></g></g></svg>