<svg xmlns="http://www.w3.org/2000/svg" xmlns:xlink="http://www.w3.org/1999/xlink" width="100" height="100" viewBox="0 0 100 100"><defs><clipPath id="b"><rect width="100" height="100"/></clipPath></defs><g id="a" clip-path="url(#b)"><g transform="translate(11)"><path d="M35.276,0H51.65V75.046a108.3,108.3,0,0,1-21.241,2.211C10.41,77.236,0,68.3,0,51.143,0,34.61,11.042,23.88,28.153,23.88a26.64,26.64,0,0,1,7.123.835V0Zm.574,38.24a16.485,16.485,0,0,0-5.521-.835c-8.281,0-13.065,5.052-13.065,13.9,0,8.619,4.573,13.378,12.96,13.378a38.631,38.631,0,0,0,5.626-.415Z"/><path d="M182.186,25.9V63.47c0,12.94-.969,19.163-3.814,24.528-2.655,5.158-6.153,8.41-13.381,12L149.8,92.84c7.228-3.359,10.726-6.327,12.96-10.857,2.339-4.632,3.076-10,3.076-24.108V25.9h16.353Zm-18-25.9h16.374V16.637H164.183Z" transform="translate(-103.761)"/></g></g></svg>