<svg xmlns="http://www.w3.org/2000/svg" xmlns:xlink="http://www.w3.org/1999/xlink" width="100" height="100" viewBox="0 0 100 100"><defs><clipPath id="b"><rect width="100" height="100"/></clipPath></defs><g id="a" clip-path="url(#b)"><g transform="translate(-20.887 -230.9)"><path d="M119.913,288.011c-.278-.232-2.783-2.133-8.163-2.133a25.944,25.944,0,0,0-4.221.371c-1.02-7.1-6.911-10.528-7.142-10.714l-1.438-.835-.928,1.345a19.832,19.832,0,0,0-2.551,5.937,14.093,14.093,0,0,0,1.67,11.085c-2.458,1.391-6.447,1.716-7.282,1.762H24a3.108,3.108,0,0,0-3.107,3.107,46.931,46.931,0,0,0,2.876,16.928c2.273,5.937,5.658,10.343,10.018,13.033,4.916,3.015,12.94,4.731,21.984,4.731a67.421,67.421,0,0,0,12.2-1.113,50.339,50.339,0,0,0,15.955-5.8,43.669,43.669,0,0,0,10.853-8.9,59.047,59.047,0,0,0,10.621-18.32h.928c5.7,0,9.229-2.273,11.177-4.221a12.352,12.352,0,0,0,2.968-4.36l.417-1.206Z" transform="translate(0 -15.979)"/><path d="M39.888,303.061H48.7a.782.782,0,0,0,.788-.788h0v-7.884a.782.782,0,0,0-.788-.788H39.888a.782.782,0,0,0-.788.788h0v7.884a.812.812,0,0,0,.788.788h0" transform="translate(-9.766 -26.113)"/><path d="M66.088,303.061H74.9a.782.782,0,0,0,.788-.788h0v-7.884a.782.782,0,0,0-.788-.788H66.088a.782.782,0,0,0-.788.788v7.884a.812.812,0,0,0,.788.788" transform="translate(-23.815 -26.113)"/><path d="M92.788,303.061H101.6a.782.782,0,0,0,.788-.788h0v-7.884a.782.782,0,0,0-.788-.788H92.788a.782.782,0,0,0-.788.788h0v7.884a.755.755,0,0,0,.788.788h0" transform="translate(-38.131 -26.113)"/><path d="M119.088,303.061H127.9a.782.782,0,0,0,.788-.788v-7.884a.782.782,0,0,0-.788-.788h-8.812a.782.782,0,0,0-.788.788h0v7.884a.782.782,0,0,0,.788.788h0" transform="translate(-52.233 -26.113)"/><path d="M66.088,278.761H74.9a.813.813,0,0,0,.788-.788v-7.884a.782.782,0,0,0-.788-.788H66.088a.782.782,0,0,0-.788.788v7.884a.848.848,0,0,0,.788.788" transform="translate(-23.815 -13.083)"/><path d="M92.788,278.761H101.6a.813.813,0,0,0,.788-.788v-7.884a.782.782,0,0,0-.788-.788H92.788a.782.782,0,0,0-.788.788h0v7.884a.782.782,0,0,0,.788.788" transform="translate(-38.131 -13.083)"/><path d="M119.088,278.761H127.9a.813.813,0,0,0,.788-.788v-7.884a.813.813,0,0,0-.788-.788h-8.812a.782.782,0,0,0-.788.788h0v7.884a.813.813,0,0,0,.788.788" transform="translate(-52.233 -13.083)"/><path d="M119.088,254.361H127.9a.782.782,0,0,0,.788-.788v-7.884a.813.813,0,0,0-.788-.788h-8.812a.782.782,0,0,0-.788.788h0v7.884a.813.813,0,0,0,.788.788" transform="translate(-52.233)"/><path d="M145.588,303.061H154.4a.782.782,0,0,0,.788-.788v-7.884a.782.782,0,0,0-.788-.788h-8.812a.782.782,0,0,0-.788.788h0v7.884a.812.812,0,0,0,.788.788" transform="translate(-66.443 -26.113)"/></g></g></svg>