<svg xmlns="http://www.w3.org/2000/svg" xmlns:xlink="http://www.w3.org/1999/xlink" width="100" height="100" viewBox="0 0 100 100">
  <defs>
    <clipPath id="clip-path">
      <circle id="Ellipse_5" data-name="Ellipse 5" cx="50" cy="50" r="50"/>
    </clipPath>
  </defs>
  <g id="elastic-elasticsearch" transform="translate(-10 -10)">
    <g id="Group_4" data-name="Group 4" transform="translate(10 10)" clip-path="url(#clip-path)">
      <path id="Path_25" data-name="Path 25" d="M79.406,36.125H11.125A3.134,3.134,0,0,1,8,33V11.125A3.134,3.134,0,0,1,11.125,8h89.063a3.134,3.134,0,0,1,3.125,3.125v1.094A24.109,24.109,0,0,1,79.406,36.125Z" transform="translate(-8 -8)"/>
    </g>
    <g id="Group_5" data-name="Group 5" transform="translate(10 10)" clip-path="url(#clip-path)">
      <path id="Path_26" data-name="Path 26" d="M103.356,82.125H8.2V54H79.606a23.739,23.739,0,0,1,23.75,23.75Z" transform="translate(-7.888 17.875)"/>
    </g>
    <g id="Group_7" data-name="Group 7" transform="translate(10 10)">
      <g id="Group_6" data-name="Group 6" clip-path="url(#clip-path)">
        <path id="Path_27" data-name="Path 27" d="M75.581,59.125H4.8V31H75.581a14.062,14.062,0,1,1,0,28.125Z" transform="translate(-9.8 4.937)"/>
      </g>
    </g>
  </g>
</svg>
