<svg xmlns="http://www.w3.org/2000/svg" width="100.486" height="37.542" viewBox="0 0 100.486 37.542">
  <g id="go" transform="translate(0 0.034)">
    <path id="Path_5" data-name="Path 5" d="M7.583,11.333c-.2,0-.245-.1-.147-.245L8.464,9.767A.7.7,0,0,1,9,9.523H26.468c.2,0,.245.147.147.294l-.832,1.272a.746.746,0,0,1-.489.294ZM.2,15.834c-.2,0-.245-.1-.147-.245l1.027-1.321a.7.7,0,0,1,.538-.245h22.31a.225.225,0,0,1,.245.294l-.391,1.174a.428.428,0,0,1-.44.294Zm11.84,4.5c-.2,0-.245-.147-.147-.294l.685-1.223a.649.649,0,0,1,.489-.294h9.785c.2,0,.294.147.294.342l-.1,1.174a.368.368,0,0,1-.342.342Zm50.784-9.883c-3.082.783-5.186,1.37-8.219,2.153-.734.2-.783.245-1.419-.489a6.549,6.549,0,0,0-2.3-1.859,8.507,8.507,0,0,0-8.855.734,10.4,10.4,0,0,0-4.99,9.3,7.67,7.67,0,0,0,6.6,7.681,9.03,9.03,0,0,0,8.317-3.229c.44-.538.832-1.125,1.321-1.81H43.837c-1.027,0-1.272-.636-.93-1.468.636-1.517,1.81-4.061,2.5-5.333a1.321,1.321,0,0,1,1.223-.783H64.434c-.1,1.321-.1,2.642-.294,3.963A20.865,20.865,0,0,1,60.129,28.9a20.381,20.381,0,0,1-13.944,8.317,17.33,17.33,0,0,1-13.161-3.229,15.368,15.368,0,0,1-6.213-10.861A19.2,19.2,0,0,1,30.969,8.789,21.711,21.711,0,0,1,44.668.325a16.86,16.86,0,0,1,12.965,2.4,15.336,15.336,0,0,1,5.675,6.9C63.6,10.061,63.407,10.306,62.819,10.452Z" transform="translate(0 0)"/>
    <path id="Path_6" data-name="Path 6" d="M143.264,37.981a18.353,18.353,0,0,1-11.938-4.305,15.344,15.344,0,0,1-5.284-9.442,18.677,18.677,0,0,1,3.963-14.775,20.51,20.51,0,0,1,13.7-8.17c4.99-.881,9.687-.391,13.944,2.5a15.229,15.229,0,0,1,6.9,10.91,18.886,18.886,0,0,1-5.626,16.586,22.419,22.419,0,0,1-11.742,6.262C145.857,37.785,144.536,37.834,143.264,37.981Zm11.644-19.766a14.08,14.08,0,0,0-.147-1.615,8.059,8.059,0,0,0-9.981-6.507,10.688,10.688,0,0,0-8.562,8.513,8.057,8.057,0,0,0,4.5,9.247,8.969,8.969,0,0,0,7.975-.294,10.707,10.707,0,0,0,6.213-9.345Z" transform="translate(-64.251 -0.473)"/>
  </g>
</svg>
