<svg xmlns="http://www.w3.org/2000/svg" xmlns:xlink="http://www.w3.org/1999/xlink" width="100" height="100" viewBox="0 0 100 100"><defs><clipPath id="b"><rect width="100" height="100"/></clipPath></defs><g id="a" clip-path="url(#b)"><g transform="translate(-0.048 9.954)"><path d="M339.19,22.206h3.052l8.694-8.694.428-3.689A39.074,39.074,0,0,0,287.8,28.883a4.734,4.734,0,0,1,3.052-.184l17.383-2.867s.884-1.463,1.341-1.371a21.686,21.686,0,0,1,29.677-2.255h-.063Z" transform="translate(-275.69 0)"/><path d="M1176.826,253.03a39.159,39.159,0,0,0-11.8-19.03l-12.2,12.2a21.684,21.684,0,0,1,7.96,17.2v2.167a10.856,10.856,0,0,1,0,21.713h-21.717l-2.167,2.2V302.5l2.167,2.167h21.717a28.243,28.243,0,0,0,16.042-51.637Z" transform="translate(-1089.199 -224.147)"/><path d="M280.052,1497.36h21.717v-17.383H280.052a10.763,10.763,0,0,1-4.485-.977l-3.052.943-8.752,8.694-.763,3.052a28.108,28.108,0,0,0,17.052,5.671Z" transform="translate(-251.93 -1416.961)"/><path d="M28.122,571.6a28.241,28.241,0,0,0-17.048,50.627l12.6-12.6a10.858,10.858,0,1,1,14.365-14.365l12.6-12.6A28.23,28.23,0,0,0,28.122,571.6Z" transform="translate(0 -547.592)"/></g></g></svg>