<svg xmlns="http://www.w3.org/2000/svg" xmlns:xlink="http://www.w3.org/1999/xlink" width="100" height="100" viewBox="0 0 100 100"><defs><clipPath id="b"><rect width="100" height="100"/></clipPath></defs><g id="a" clip-path="url(#b)"><g transform="translate(0 32)"><path d="M37.278,15.366H40.1a5.177,5.177,0,0,0,2.094-.351A2.66,2.66,0,0,0,43.39,14.01a4.169,4.169,0,0,0,.56-1.615,14.914,14.914,0,0,0,.146-2.223,14.914,14.914,0,0,0-.146-2.223,3.92,3.92,0,0,0-.609-1.638,2.731,2.731,0,0,0-1.291-1.006,6.067,6.067,0,0,0-2.192-.327H37.278V15.366ZM32.311.292H40.3q8.766,0,8.766,10.2a12.916,12.916,0,0,1-.95,5.2,7.345,7.345,0,0,1-3.336,3.488l5.357,15.858h-5.26l-4.7-15.09H37.279v15.09H32.311V.292Zm20.745,0h7.451a11.047,11.047,0,0,1,3.6.537,6.911,6.911,0,0,1,2.825,1.9,7.447,7.447,0,0,1,1.753,3.2,20.008,20.008,0,0,1,.487,4.953,21.505,21.505,0,0,1-.3,3.713,5.838,5.838,0,0,1-3.019,4.272,11.3,11.3,0,0,1-5.3,1.094H58.024V35.033H53.056V.292Zm4.968,15.074h2.386a5.67,5.67,0,0,0,2.338-.387,2.658,2.658,0,0,0,1.218-1.052,3.718,3.718,0,0,0,.463-1.61q.073-.945.073-2.1,0-1.073-.073-2.04A4.354,4.354,0,0,0,63.991,6.5a2.6,2.6,0,0,0-1.145-1.116,4.942,4.942,0,0,0-2.24-.407H58.025V15.366ZM88.656,27.274a7.926,7.926,0,0,1-.609,3.074,8.071,8.071,0,0,1-1.68,2.562,8.317,8.317,0,0,1-2.508,1.757,7.335,7.335,0,0,1-3.093.659,11.085,11.085,0,0,1-2.873-.39,6.958,6.958,0,0,1-2.63-1.342,7.233,7.233,0,0,1-1.924-2.513,9.078,9.078,0,0,1-.755-3.952V8a8.476,8.476,0,0,1,.585-3.172,7.469,7.469,0,0,1,1.656-2.537A7.716,7.716,0,0,1,77.381.61,8.575,8.575,0,0,1,80.668,0a8.137,8.137,0,0,1,3.165.61,7.571,7.571,0,0,1,2.532,1.708,7.87,7.87,0,0,1,1.68,2.635A9,9,0,0,1,88.655,8.3v1.951H83.687V8.588a4.032,4.032,0,0,0-.827-2.537,2.679,2.679,0,0,0-2.24-1.074,2.522,2.522,0,0,0-2.46,1.147,6.159,6.159,0,0,0-.608,2.9v17.76a4.608,4.608,0,0,0,.657,2.537,2.588,2.588,0,0,0,2.363,1.025,3.6,3.6,0,0,0,1.047-.171,2.882,2.882,0,0,0,1.022-.562,2.825,2.825,0,0,0,.755-1.073,4.351,4.351,0,0,0,.292-1.708V25.129h4.968v2.146Zm9.732-9.656a2.293,2.293,0,0,0-2.29-2.3H83.693v4.593H93.808v5.122H92.25l3.875,5.476L100,25.037H98.388V17.618Zm-87.115,2.34v6.876A8.849,8.849,0,0,0,12,30.568,7.8,7.8,0,0,0,13.927,33.2a8.288,8.288,0,0,0,2.678,1.586,8.628,8.628,0,0,0,5.99,0A8.284,8.284,0,0,0,25.274,33.2,7.785,7.785,0,0,0,27.2,30.568a8.849,8.849,0,0,0,.73-3.733V15.376l-8.9-.014-.011,4.6h3.945v6.878a3.311,3.311,0,0,1-1,2.659,3.693,3.693,0,0,1-4.724,0,3.312,3.312,0,0,1-1-2.659V8.49a3.311,3.311,0,0,1,1-2.659,3.693,3.693,0,0,1,4.724,0,3.31,3.31,0,0,1,1,2.659v1.757h4.968V8.49a8.893,8.893,0,0,0-.73-3.709,7.739,7.739,0,0,0-1.924-2.659A8.288,8.288,0,0,0,22.6.536a8.635,8.635,0,0,0-5.991,0,8.293,8.293,0,0,0-2.679,1.586A7.731,7.731,0,0,0,12,4.781a8.891,8.891,0,0,0-.731,3.709v6.877H6.192V10.245H7.75L3.875,4.769,0,10.245H1.612v7.418a2.293,2.293,0,0,0,2.29,2.3Z"/></g></g></svg>