<svg id="gRPC" xmlns="http://www.w3.org/2000/svg" width="200" height="70.651" viewBox="0 0 200 70.651">
  <path id="grpc-2" data-name="grpc" d="M74.557,30.733h5.649a10.355,10.355,0,0,0,4.188-.7,5.321,5.321,0,0,0,2.386-2.012A8.339,8.339,0,0,0,87.9,24.79a29.829,29.829,0,0,0,.292-4.446A29.829,29.829,0,0,0,87.9,15.9a7.84,7.84,0,0,0-1.217-3.276A5.462,5.462,0,0,0,84.1,10.61a12.134,12.134,0,0,0-4.383-.655H74.557V30.733ZM64.622.585H80.6q17.532,0,17.532,20.395a25.832,25.832,0,0,1-1.9,10.393,14.689,14.689,0,0,1-6.672,6.977l10.714,31.715H89.751l-9.41-30.18H74.557v30.18H64.622V.585Zm41.491,0h14.9a22.093,22.093,0,0,1,7.207,1.074,13.823,13.823,0,0,1,5.65,3.806,14.9,14.9,0,0,1,3.506,6.392,40.015,40.015,0,0,1,.974,9.905,43.01,43.01,0,0,1-.6,7.426,11.675,11.675,0,0,1-6.038,8.543c-2.832,1.608-6.9,2.188-10.6,2.188h-5.064V70.065h-9.936V.585Zm9.936,30.148h4.772a11.341,11.341,0,0,0,4.675-.773,5.315,5.315,0,0,0,2.436-2.1,7.435,7.435,0,0,0,.925-3.22q.146-1.89.146-4.208,0-2.146-.146-4.079A8.708,8.708,0,0,0,127.981,13a5.2,5.2,0,0,0-2.289-2.233,9.884,9.884,0,0,0-4.48-.815H116.05V30.733Zm61.263,23.816a15.852,15.852,0,0,1-1.218,6.148,16.141,16.141,0,0,1-3.36,5.123,16.633,16.633,0,0,1-5.016,3.513,14.67,14.67,0,0,1-6.186,1.317,22.169,22.169,0,0,1-5.746-.781,13.917,13.917,0,0,1-5.26-2.684,14.465,14.465,0,0,1-3.848-5.025,18.157,18.157,0,0,1-1.509-7.9V16a16.952,16.952,0,0,1,1.169-6.343,14.937,14.937,0,0,1,3.311-5.074,15.431,15.431,0,0,1,5.114-3.367A17.15,17.15,0,0,1,161.337,0a16.275,16.275,0,0,1,6.331,1.22,15.141,15.141,0,0,1,5.064,3.416,15.739,15.739,0,0,1,3.36,5.27,18.007,18.007,0,0,1,1.218,6.685v3.9h-9.936V17.176a8.063,8.063,0,0,0-1.655-5.074,5.358,5.358,0,0,0-4.48-2.147q-3.7,0-4.919,2.293a12.317,12.317,0,0,0-1.217,5.806V53.575a9.215,9.215,0,0,0,1.314,5.074q1.314,2.049,4.725,2.05a7.2,7.2,0,0,0,2.094-.342,5.764,5.764,0,0,0,2.045-1.123,5.65,5.65,0,0,0,1.51-2.146,8.7,8.7,0,0,0,.584-3.415V50.258h9.936v4.291Zm19.465-19.312a4.586,4.586,0,0,0-4.58-4.592H167.386V39.83h20.23V50.074H184.5l7.75,10.951L200,50.073h-3.223V35.237ZM22.546,39.918V53.671a17.7,17.7,0,0,0,1.461,7.465,15.592,15.592,0,0,0,3.848,5.27,16.576,16.576,0,0,0,5.357,3.172,17.256,17.256,0,0,0,11.98,0,16.569,16.569,0,0,0,5.357-3.172,15.57,15.57,0,0,0,3.847-5.27,17.7,17.7,0,0,0,1.461-7.465V30.752l-17.8-.027-.023,9.19h7.89V53.671q0,3.611-2,5.318a7.387,7.387,0,0,1-9.448,0q-2-1.708-2-5.318V16.979q0-3.61,2-5.318a7.387,7.387,0,0,1,9.448,0q2,1.708,2,5.318v3.513h9.935V16.979A17.786,17.786,0,0,0,54.4,9.562,15.478,15.478,0,0,0,50.55,4.244a16.576,16.576,0,0,0-5.357-3.172,17.269,17.269,0,0,0-11.982,0,16.587,16.587,0,0,0-5.357,3.172,15.461,15.461,0,0,0-3.848,5.318,17.782,17.782,0,0,0-1.461,7.417V30.733H12.383V20.489H15.5L7.75,9.538,0,20.489H3.223V35.325A4.587,4.587,0,0,0,7.8,39.918Z"/>
</svg>
