<svg xmlns="http://www.w3.org/2000/svg" xmlns:xlink="http://www.w3.org/1999/xlink" width="100" height="100" viewBox="0 0 100 100"><defs><clipPath id="b"><rect width="100" height="100"/></clipPath></defs><g id="a" clip-path="url(#b)"><g transform="translate(-20 -23)"><path d="M80.75,0H9A8.963,8.963,0,0,0,0,9V91a8.963,8.963,0,0,0,9,9H80.75a8.963,8.963,0,0,0,9-9V9A8.963,8.963,0,0,0,80.75,0Zm4,91a3.949,3.949,0,0,1-4,4H9a3.949,3.949,0,0,1-4-4V9A3.949,3.949,0,0,1,9,5H80.75a3.949,3.949,0,0,1,4,4V91ZM22.5,85,33.75,75,22.5,65ZM63,44.5c-2-2-5.75-4.5-12-4.5a59.611,59.611,0,0,0-18.75,3.5V15H22.5V58.25l7-3.25S41,49.75,51,49.75c5,0,6.25,2.75,6.25,5.25V85h10V55A15.215,15.215,0,0,0,63,44.5ZM49.75,31.25h10A30.156,30.156,0,0,0,67.25,15h-10A36.908,36.908,0,0,1,49.75,31.25Z" transform="translate(25 23)"/></g></g></svg>