<svg xmlns="http://www.w3.org/2000/svg" xmlns:xlink="http://www.w3.org/1999/xlink" width="100" height="100" viewBox="0 0 100 100"><defs><clipPath id="b"><rect width="100" height="100"/></clipPath></defs><g id="a" clip-path="url(#b)"><path d="M-3388-605h-100V-705h100v100Zm-66.112-21.056h0c-1.277.78-2.572,1.574-3.823,2.342l-.115.07c-1.2.737-2.444,1.5-3.667,2.246a15.007,15.007,0,0,0,5.513,6.312,16.586,16.586,0,0,0,8.541,2.2h.012a21.573,21.573,0,0,0,4.813-.56,11.817,11.817,0,0,0,7.547-5.913c1.815-3.346,1.75-7.376,1.681-11.641v-.021c-.012-.739-.024-1.5-.027-2.272.032-5.664.021-11.429.011-17v-.147c-.005-2.644-.011-5.641-.011-8.6h-9.354c0,3.956-.009,7.965-.019,11.843v.247c-.009,3.945-.019,8.023-.019,12.092,0,1.049.011,2.064.021,3.045.041,3.813.076,7.105-.592,8.258a4.217,4.217,0,0,1-4.17,2.318,7.616,7.616,0,0,1-2.359-.378,7.939,7.939,0,0,1-3.452-3.584l-.074-.131,0-.006a3.61,3.61,0,0,0-.454-.719Zm33.194-.817c-3.745,2.167-3.745,2.167-7.6,4.382a14.115,14.115,0,0,0,2.776,3.929c.217.241.413.46.627.7a16.027,16.027,0,0,0,6.063,3.689,22.918,22.918,0,0,0,7.573,1.273,19.191,19.191,0,0,0,9.3-2.207,11.55,11.55,0,0,0,5.685-6.891,13.886,13.886,0,0,0,.3-6.854,11.225,11.225,0,0,0-3.229-6.355c-2.022-2.062-5.061-3.9-9.29-5.613-.583-.268-1.186-.525-1.769-.773-2.521-1.073-4.9-2.085-5.722-3.961a5.176,5.176,0,0,1-.18-2.928,3.625,3.625,0,0,1,1.676-2.255,5.463,5.463,0,0,1,2.815-.734,6.335,6.335,0,0,1,1.84.27,6.963,6.963,0,0,1,4.068,3.774c3.423-2.217,4.11-2.653,5.769-3.708l1.551-.987a18.608,18.608,0,0,0-2.415-3.232,11.816,11.816,0,0,0-4.542-3.191,17.889,17.889,0,0,0-6.647-1.093c-.2,0-.4,0-.6.006q-.736.093-1.477.19l-.061.008q-.706.092-1.41.182a13.248,13.248,0,0,0-7.091,4.183,12.4,12.4,0,0,0-2.754,9.832,13.746,13.746,0,0,0,1.651,5,11.182,11.182,0,0,0,3.48,3.811,36.965,36.965,0,0,0,7.827,4.094c3.558,1.507,6.631,2.808,7.249,5.117a4.5,4.5,0,0,1-.729,3.935c-1.079,1.332-3.106,2.065-5.71,2.066a14.362,14.362,0,0,1-1.735-.108,9.571,9.571,0,0,1-4.157-1.866,14.8,14.8,0,0,1-3.144-3.685Z" transform="translate(3488 705)"/></g></svg>