<svg id="logo-v2-tr" xmlns="http://www.w3.org/2000/svg" width="100" height="94.809" viewBox="0 0 100 94.809">
  <path id="Path_1" data-name="Path 1" d="M83.992,54.381c-3-2.92-10.068-3.92-10.606,1.691v.077a7.332,7.332,0,0,0,5.072,7.071,8.357,8.357,0,0,0,5.3-.154,3.639,3.639,0,0,0,2.459-4.227A8.223,8.223,0,0,0,83.992,54.381ZM83.3,61.912a6.394,6.394,0,0,1-6.3-.769,6.267,6.267,0,0,1-2.383-4.534c0-1.306.384-2.459,1.691-2.92a6.442,6.442,0,0,1,8.608,5.995A2.215,2.215,0,0,1,83.3,61.912Z" transform="translate(-2.755 -4.541)"/>
  <path id="Path_2" data-name="Path 2" d="M98.914,59.535c-.461-1.8-.974-3.6-1.486-5.4a27.012,27.012,0,0,0-4-8.84c-1.435-2-4.2-3.444-5.38-5.4-.666-1.079-.359-2.981-.666-4.214a8.978,8.978,0,0,0-2.254-4.574C82.825,28.7,79.6,29.006,76.984,30.7a7.577,7.577,0,0,0-5.995-2.364,7.18,7.18,0,0,0-5.329,3.7A30.029,30.029,0,0,0,38.5,3.1c-.82-.051-1.64-.1-2.459-.1A20.76,20.76,0,0,0,22.261,7.831a16.447,16.447,0,0,0-5.482,10.125,13.911,13.911,0,0,0,1.537,8.172,6.029,6.029,0,0,0,4,2.775c-.512.308-1.076.565-1.588.874a74.957,74.957,0,0,0-8.711,5.345A29.75,29.75,0,0,0,15.7,85.233,42.862,42.862,0,0,0,26,88.985c1.793.462,2.459.874,4.355,2.775,1.127,1.131,2.255,2.159,3.331,3.135a8.029,8.029,0,0,0,3.433,1.953c2.972.822,6.2.668,9.223.771q4.919.154,9.838.154c2.459,0,5.124.257,7.481-.617.307-.1,4.048-2.416,3.484-2.981,2.306,2,5.124,3.444,7.84,3.444a7.611,7.611,0,0,0,2.2-.308,6.022,6.022,0,0,0,4-3.546,6.1,6.1,0,0,0-.41-5.242,7.885,7.885,0,0,0-1.383-1.747c-.717-.668-1.691-2.467-2.152-6.887-.1-1.182-.1-2.518-.1-3.906a12.958,12.958,0,0,0,2.767.206h.154c4.253,0,10.965-.668,15.371-3.444a8.624,8.624,0,0,0,4.56-7.452A20.393,20.393,0,0,0,98.914,59.535ZM77.65,38.617c.359-.668.717-1.336,1.127-1.953s2-3.186,2.921-2.159a2.718,2.718,0,0,1,.564,1.234,14.465,14.465,0,0,1,.41,1.593,46.618,46.618,0,0,1,.564,4.677.56.56,0,0,1-.051.257c-1.127-.36-2.152-.822-3.228-1.079a32.1,32.1,0,0,0-3.33-.565A18.273,18.273,0,0,0,77.65,38.617ZM78.111,71c-4.048-.411-7.071-2.93-9.787-5.808a32.88,32.88,0,0,0-2.459-2.673c-.307.154,1.281,2.416,1.435,2.621a29.1,29.1,0,0,0,3.279,3.8c.307.308,1.332,1.131,1.332,1.131v1.079c.205,3.546-.2,5.756.154,9.354.359,3.392,1.127,7.658,3.74,10.074a2.056,2.056,0,0,1,.512.617.827.827,0,0,1-.564,1.285c-3.177.925-8.3-4.163-8.608-7.247-.051-.565.461-1.131.615-1.7,2.921-9.971-6.507-15.265-14.654-13.877-4.714.822-10.35,5.345-10.555,10.074,2.818-3.752,4.663-7.35,9.53-8.891,7.276-2.364,16.806,2.878,15.269,11.41a8.415,8.415,0,0,1-3.074,5.037c-1.691,1.285-4.355.977-5.79,2.518a2.708,2.708,0,0,0,1.435.154,4.781,4.781,0,0,1,1.742.206A1.486,1.486,0,0,1,62.688,91.5c0,1.388-2.921,1.285-3.792,1.285-3.587,0-7.173-.1-10.76-.206-3.023-.1-6.661.206-9.582-.617a3.946,3.946,0,0,1-1.383-.874c-1.076-.925-2.1-1.953-3.074-2.929-2.2-2.21-3.689-3.392-6.763-4.163a38.054,38.054,0,0,1-9.12-3.341C2.33,72.281.69,49.821,15.19,39.234c3.689-2.775,7.993-4.831,12.041-7.247a13.244,13.244,0,0,0,4.253-3.444c4.407-5.859-4.3-11.615-7.43-5.448a1.163,1.163,0,0,1-.461.617.641.641,0,0,1-.82-.36,9.589,9.589,0,0,1-.871-4.78,11.423,11.423,0,0,1,3.792-6.938A16.337,16.337,0,0,1,38.043,8.191C52.236,9.579,61.869,21.914,60.485,36.1a27.423,27.423,0,0,1-9.274,17.937,41.443,41.443,0,0,1-10.658,6.322c-3.535,1.49-7.122,2.313-9.479,5.6-2.767,3.8-3.382,9.354-.615,13.363.512.719.871,1.542,1.383,2.21.359-5.191-.512-9.919,2.818-14.494a17.839,17.839,0,0,1,7.788-5.756c4.048-1.645,8.4-1.953,12.144-4.317,5.687-3.546,7.02-10.844,12.4-14.442a6.708,6.708,0,0,0,1.383-.977c.256-.257.256-.771.359-1.131.41-1.7.769-3.444,1.23-5.14a2.613,2.613,0,0,1,1.383-1.747,1.766,1.766,0,0,1,1.025-.051,4.713,4.713,0,0,1,1.281.977c1.537,1.8,2.408,6.63,2.408,6.681,0-.051,1.332.154,1.435.154a21.445,21.445,0,0,1,6.61,2.261,14.8,14.8,0,0,1,4.765,3.957c3.331,4.112,4.1,9.714,5.585,14.648.1.36.307,1.336.307,1.336a3.817,3.817,0,0,0-.974.36,14.086,14.086,0,0,0-1.435.977,3.007,3.007,0,0,0-.666,3.649S86.412,71.87,78.111,71Zm14.3-2.827c-1.23-1.593.41-3.443,2.357-4.06C95.174,65.96,94.354,66.987,92.407,68.17Z" transform="translate(0 -3)"/>
</svg>
