<svg xmlns="http://www.w3.org/2000/svg" width="100" height="98.162" viewBox="0 0 100 98.162">
  <g id="mysql" transform="translate(-0.024 0)">
    <path id="Path_19" data-name="Path 19" d="M92.135,75.922c-5.441-.136-9.658.409-13.194,1.9-1.02.408-2.653.408-2.789,1.7.544.544.612,1.428,1.088,2.176a15.945,15.945,0,0,0,3.537,4.149c1.428,1.088,2.857,2.176,4.353,3.128,2.653,1.632,5.646,2.584,8.23,4.217,1.5.952,2.992,2.177,4.489,3.2.748.543,1.224,1.428,2.177,1.768v-.2c-.477-.613-.613-1.5-1.088-2.177-.679-.68-1.36-1.292-2.041-1.973a32.259,32.259,0,0,0-7.073-6.869c-2.176-1.5-6.938-3.537-7.822-6.053l-.136-.136a27.659,27.659,0,0,0,4.693-1.088c2.312-.613,4.421-.476,6.8-1.088,1.088-.272,2.176-.612,3.264-.952V77.01c-1.224-1.224-2.108-2.856-3.4-4.013A90.683,90.683,0,0,0,82,64.632c-2.109-1.36-4.829-2.245-7.074-3.4-.815-.409-2.176-.612-2.652-1.292A27.432,27.432,0,0,1,69.486,54.7c-1.972-3.741-3.877-7.89-5.577-11.834-1.224-2.653-1.972-5.306-3.468-7.754C53.435,23.552,45.818,16.547,34.12,9.677c-2.517-1.428-5.509-2.04-8.706-2.788-1.7-.068-3.4-.2-5.1-.272-1.088-.476-2.177-1.768-3.129-2.38C13.309,1.788,3.31-3.517.453,3.489c-1.837,4.421,2.721,8.773,4.285,11.018a32.036,32.036,0,0,1,3.469,5.1c.476,1.156.612,2.381,1.088,3.6a81.661,81.661,0,0,0,3.537,9.114,32.884,32.884,0,0,0,2.516,4.216c.544.748,1.5,1.088,1.7,2.312-.952,1.36-1.02,3.4-1.565,5.1-2.448,7.686-1.5,17.207,1.973,22.852,1.088,1.7,3.673,5.442,7.141,4.013,3.061-1.224,2.381-5.1,3.264-8.5.2-.817.069-1.36.477-1.9v.136c.952,1.9,1.9,3.741,2.788,5.645a38.84,38.84,0,0,0,8.841,9.114c1.633,1.224,2.925,3.332,4.965,4.08v-.2H44.8a7.52,7.52,0,0,0-1.564-1.36,32.974,32.974,0,0,1-3.537-4.08,87.511,87.511,0,0,1-7.618-12.379c-1.088-2.108-2.041-4.421-2.924-6.529-.409-.817-.409-2.041-1.088-2.448-1.02,1.5-2.516,2.788-3.265,4.625-1.292,2.924-1.428,6.529-1.9,10.27-.272.069-.136,0-.272.137-2.176-.545-2.924-2.789-3.741-4.693C16.844,57.9,16.5,50.145,18.273,44.568c.476-1.428,2.517-5.917,1.7-7.277C19.565,36,18.2,35.25,17.457,34.23a27.4,27.4,0,0,1-2.448-4.353c-1.632-3.809-2.449-8.026-4.217-11.834a36.2,36.2,0,0,0-3.4-5.237C6.1,10.97,4.67,9.677,3.65,7.5c-.34-.748-.816-1.972-.272-2.788a1.083,1.083,0,0,1,.952-.884c.884-.749,3.4.2,4.285.612a34.666,34.666,0,0,1,6.734,3.4c.952.68,1.972,1.973,3.2,2.313h1.428c2.177.476,4.625.136,6.665.748a43.464,43.464,0,0,1,9.794,4.693,60.34,60.34,0,0,1,21.22,23.26c.816,1.564,1.156,2.993,1.9,4.625,1.429,3.333,3.2,6.734,4.625,10,1.428,3.2,2.788,6.461,4.829,9.114,1.02,1.428,5.1,2.176,6.937,2.924a48.235,48.235,0,0,1,4.693,1.9c2.312,1.428,4.625,3.061,6.8,4.625,1.088.816,4.489,2.517,4.693,3.877Z" transform="translate(0)"/>
    <path id="Path_20" data-name="Path 20" d="M53.842,43.022a10.777,10.777,0,0,0-2.788.34V43.5h.136a21.917,21.917,0,0,0,2.176,2.788c.545,1.088,1.02,2.177,1.565,3.265l.136-.136a3.837,3.837,0,0,0,1.428-3.4,15.23,15.23,0,0,1-.816-1.428C55.271,43.906,54.386,43.567,53.842,43.022Z" transform="translate(-31.081 -26.204)"/>
  </g>
</svg>
