<svg xmlns="http://www.w3.org/2000/svg" xmlns:xlink="http://www.w3.org/1999/xlink" width="100" height="100" viewBox="0 0 100 100"><defs><clipPath id="b"><rect width="100" height="100"/></clipPath></defs><g id="a" clip-path="url(#b)"><g transform="translate(4.397 -0.584)"><path d="M41.882,1.651a8.386,8.386,0,0,1,8.187,0q18.7,10.564,37.393,21.121A7.7,7.7,0,0,1,91.349,29.4V71.773a7.781,7.781,0,0,1-4.178,6.774Q68.537,89.052,49.911,99.566a8.148,8.148,0,0,1-8.277-.23q-5.586-3.239-11.18-6.464A6.582,6.582,0,0,1,28.3,91.319c.475-.64,1.325-.72,2.015-1a26.093,26.093,0,0,0,4.411-2.058,1.029,1.029,0,0,1,1.148.069c3.185,1.826,6.341,3.705,9.537,5.514.682.394,1.372-.129,1.955-.454Q65.648,83.055,83.947,72.745a1.21,1.21,0,0,0,.665-1.191q.013-20.966,0-41.934a1.31,1.31,0,0,0-.781-1.307Q65.266,17.854,46.705,7.384a1.29,1.29,0,0,0-1.458,0Q26.681,17.846,8.121,28.318a1.3,1.3,0,0,0-.785,1.3q0,20.966,0,41.936a1.186,1.186,0,0,0,.673,1.176q4.954,2.81,9.915,5.6a7.662,7.662,0,0,0,6.2.83,4.7,4.7,0,0,0,3.045-4.419c.017-13.9-.009-27.794.013-41.687a1.046,1.046,0,0,1,1.14-1.068c1.587-.011,3.176-.021,4.763,0a1.1,1.1,0,0,1,1.036,1.271c-.006,13.984.017,27.968-.011,41.951,0,3.727-1.527,7.782-4.974,9.605-4.247,2.2-9.5,1.733-13.691-.376-3.632-1.813-7.1-3.952-10.666-5.894A7.763,7.763,0,0,1,.6,71.773V29.4a7.712,7.712,0,0,1,4.021-6.713Q23.255,12.174,41.882,1.651Z" transform="translate(0 0)"/><path d="M119.79,85.74c5.417-.349,11.216-.207,16.091,2.462,3.774,2.045,5.867,6.337,5.933,10.53a1.14,1.14,0,0,1-1.237.839c-1.572,0-3.144.021-4.715-.011a1.215,1.215,0,0,1-1.138-1.179,7.178,7.178,0,0,0-3.434-4.961c-2.9-1.451-6.26-1.378-9.421-1.348-2.308.123-4.789.322-6.744,1.679a4.273,4.273,0,0,0-1.421,4.774c.505,1.2,1.89,1.587,3.023,1.944,6.528,1.707,13.446,1.538,19.85,3.784,2.651.916,5.245,2.7,6.152,5.473a11.691,11.691,0,0,1-1.98,11.154,15.63,15.63,0,0,1-8.391,4.522,40.314,40.314,0,0,1-12.666.538c-3.961-.452-8.083-1.492-11.141-4.191a11.692,11.692,0,0,1-3.765-9.223,1.056,1.056,0,0,1,1.157-.931c1.583-.013,3.165-.017,4.748,0a1.109,1.109,0,0,1,1.133,1.1,7.194,7.194,0,0,0,2.677,5.051c3.217,2.075,7.253,1.933,10.936,1.991,3.052-.135,6.477-.176,8.967-2.193a4.953,4.953,0,0,0,1.348-4.731c-.385-1.4-1.847-2.049-3.1-2.475-6.445-2.039-13.44-1.3-19.822-3.6-2.591-.916-5.1-2.647-6.092-5.309a10.874,10.874,0,0,1,2.172-11.313c2.851-2.871,6.967-3.976,10.881-4.372Z" transform="translate(-67.073 -54.738)"/></g></g></svg>