<svg xmlns="http://www.w3.org/2000/svg" xmlns:xlink="http://www.w3.org/1999/xlink" width="100" height="100" viewBox="0 0 100 100"><defs><clipPath id="b"><rect width="100" height="100"/></clipPath></defs><g id="a" clip-path="url(#b)"><g transform="translate(1.703 -0.365)"><path d="M-3540.129-577.635a10.49,10.49,0,0,1-7.465-2.776,14.214,14.214,0,0,1-3.536-6.226c-.072-.223-.153-.474-.213-.636-1.024-2.765-1.37-6.714-1.574-11.793-.029-.733-.05-1.484-.074-2.354v-.019l0-.137c-.014-.5-.028-1.014-.048-1.565a16.557,16.557,0,0,1-6.688,1.354,21.1,21.1,0,0,1-5.1-.652,11.943,11.943,0,0,1-3.371-1.42,7.487,7.487,0,0,1-1.787-1.539,9.007,9.007,0,0,1-5.838,2.277,8.4,8.4,0,0,1-2.656-.434c-3.205-1.069-6.061-4.047-8.73-9.1a80.634,80.634,0,0,1-5.407-13.8c-2.968-9.727-4.854-19.981-5.022-23.35-.531-10.616,2.34-18.217,8.533-22.59,3.663-2.588,8.327-3.9,13.86-3.9a42.972,42.972,0,0,1,6.922.6,57.089,57.089,0,0,1,8.873,2.228,23.308,23.308,0,0,1,12.078-3.1c.144,0,.3,0,.485,0a45.739,45.739,0,0,1,7.212.66,42.22,42.22,0,0,1,11.863-1.731c.172,0,.326,0,.471,0,9.9.117,18.1,3.978,23.726,11.164,2.125,2.714,3.944,8.714.541,21.89a96.929,96.929,0,0,1-10.256,24.394,29.782,29.782,0,0,0,5.023-.659,10.944,10.944,0,0,1,2.229-.254,6.984,6.984,0,0,1,1.03.073,4.92,4.92,0,0,1,4.085,3.291c1.7,5.147-5.523,8.961-7.777,10.007a26.5,26.5,0,0,1-10.247,1.98c-.365,0-.719-.008-1.05-.023l-.175-.012-.683-.06-.062.517q-.043.377-.092.793c-.255,9.791-1.661,16-4.56,20.125-3.064,4.363-7.3,5.582-11.03,6.381A16.766,16.766,0,0,1-3540.129-577.635Zm-10.71-30.417v0c-.087,10.36.422,17.948,1.362,20.3a14.307,14.307,0,0,0,2.674,4.578,9.228,9.228,0,0,0,7.073,2.94,15.675,15.675,0,0,0,3.274-.372c7.035-1.507,10.09-4.616,11.271-11.471.639-3.7,1.723-12.46,2.228-17.1a13.767,13.767,0,0,0,3.963.49,23.68,23.68,0,0,0,9-1.715c2.541-1.18,7.128-4.077,6.3-6.593-.315-.953-1.148-1.436-2.476-1.436a8.269,8.269,0,0,0-1.644.19,30.683,30.683,0,0,1-6.029.726c-2.365,0-3.514-.481-4.062-.884a94.322,94.322,0,0,0,12.046-27.018,51.317,51.317,0,0,0,1.785-11.618c.056-3.594-.556-6.235-1.819-7.848-5.09-6.5-12.561-9.993-21.6-10.089l-.4,0a37.03,37.03,0,0,0-12.087,1.97,31.29,31.29,0,0,0-7.027-.9c-.144,0-.292,0-.438,0a20.187,20.187,0,0,0-11.6,3.323,53.808,53.808,0,0,0-9.785-2.565,40.375,40.375,0,0,0-6.376-.546c-4.988,0-9.141,1.151-12.345,3.421-5.364,3.8-7.84,10.592-7.361,20.19.162,3.229,2,13.161,4.9,22.673,3.822,12.52,7.976,19.607,12.346,21.066a5.559,5.559,0,0,0,1.752.289c1.959,0,3.838-1.064,5.583-3.163,2.465-2.958,5.054-5.887,7.695-8.707a12.481,12.481,0,0,0,5.536,1.488c0,.028,0,.057.007.085v.011l.005.056c-.323.385-.651.79-.976,1.206-1.338,1.7-1.616,2.052-5.922,2.938-1.225.253-4.477.924-4.525,3.2-.052,2.491,3.845,3.538,4.289,3.649a18.424,18.424,0,0,0,4.459.578,13.82,13.82,0,0,0,4.851-.843,12.682,12.682,0,0,0,4.079-2.491Zm11.127,25.019a6.492,6.492,0,0,1-4.7-1.739,10.894,10.894,0,0,1-2.461-4.018c-.934-2.334-1.393-12.857-1.066-24.477a1.421,1.421,0,0,0-.061-.444,5.82,5.82,0,0,0-.173-.821,5.675,5.675,0,0,0-3.078-3.692,4.949,4.949,0,0,0-1.935-.456,3.63,3.63,0,0,0-.9.113,34.439,34.439,0,0,1,1.22-3.651l.208-.561c.236-.635.53-1.288.841-1.979,1.684-3.74,3.99-8.862,1.487-20.437a7.6,7.6,0,0,0-2.566-4.486,7.682,7.682,0,0,0-4.938-1.544,12.732,12.732,0,0,0-1.308.07,20.315,20.315,0,0,0-6.746,2.1c-.248.125-.494.256-.773.411.365-4.4,1.741-12.54,6.851-17.695a16.7,16.7,0,0,1,12.353-4.774c.132,0,.263,0,.4,0a27.024,27.024,0,0,1,20.648,9.867,31.192,31.192,0,0,1,5.649,9.688,25.084,25.084,0,0,0-2.521-.135c-3.856,0-6.566,1.08-8.057,3.21-3.918,5.6,2.144,16.472,5.056,21.7.534.957,1,1.782,1.141,2.138a19.416,19.416,0,0,0,3.073,4.954l.023.03c.269.336.523.654.721.938a5.593,5.593,0,0,0-2.773,1.585,7.058,7.058,0,0,0-1.392,5.194c-.208,2.641-1.7,15.043-2.449,19.392-1,5.776-3.122,7.928-9.1,9.21A12.919,12.919,0,0,1-3539.712-583.034Zm-20.059-24.484h0a15.642,15.642,0,0,1-3.78-.493,6.193,6.193,0,0,1-1.867-.8,9.1,9.1,0,0,1,1.99-.593c5.065-1.042,5.847-1.778,7.555-3.947.392-.5.834-1.059,1.45-1.748.489-.547.86-.781,1.24-.781a2.312,2.312,0,0,1,.854.244,2.958,2.958,0,0,1,1.459,1.876,2.082,2.082,0,0,1-.178,1.755A10.206,10.206,0,0,1-3559.771-607.518Zm-16.165-1.335h0a2.559,2.559,0,0,1-.853-.153c-3.316-1.106-7.164-8.114-10.556-19.227-2.933-9.61-4.649-19.282-4.786-22-.428-8.575,1.651-14.551,6.178-17.762,2.711-1.923,6.332-2.9,10.76-2.9A46.431,46.431,0,0,1-3561.6-668.5c-.026.026-.053.052-.08.077l-.016.015-.007.007c-.036.034-.073.069-.109.106a23.29,23.29,0,0,0-4.589,6.832,34.659,34.659,0,0,0-2.3,7.226,41.142,41.142,0,0,0-.886,8.639c0,.319.024.747.064,1.419a57.085,57.085,0,0,1-.291,11.521,14.566,14.566,0,0,0,3.841,12.194c.312.326.646.641.993.937-1.467,1.573-4.393,4.768-7.51,8.517C-3573.686-609.58-3574.844-608.853-3575.936-608.853Zm56.871-2.631c-2.277,0-3.374-.406-3.636-.62-.16-3.282,1.062-3.625,2.355-3.989.187-.052.4-.111.594-.18a4.8,4.8,0,0,0,.392.287,10.015,10.015,0,0,0,5.5,1.266,33.448,33.448,0,0,0,6.609-.784l.063-.012a15.337,15.337,0,0,1-3.984,2.572,20.421,20.421,0,0,1-6.9,1.435C-3518.414-611.492-3518.747-611.484-3519.064-611.484Zm-37.744-7.755h0a9.916,9.916,0,0,1-7.147-3.168,11.786,11.786,0,0,1-3.089-9.87,59.55,59.55,0,0,0,.313-12.074l-.006-.1,0-.042c-.017-.281-.031-.523-.039-.723a16.979,16.979,0,0,1,8.87-3.214,7.021,7.021,0,0,1,1.563.165,4.241,4.241,0,0,1,3.278,3.663c2.307,10.671.306,15.12-1.3,18.694-.332.737-.645,1.432-.914,2.156l-.208.557,0,.006a36.4,36.4,0,0,0-1.313,3.952Zm-.747-27.63a2.766,2.766,0,0,0-1.62.4.89.89,0,0,0-.366.588,1.72,1.72,0,0,0,.416,1.122,3.148,3.148,0,0,0,2,1.246,2.4,2.4,0,0,0,.32.022,2.571,2.571,0,0,0,2.452-1.668c.057-.407-.182-.785-.692-1.094a4.7,4.7,0,0,0-1.722-.558A5.555,5.555,0,0,0-3557.555-646.868Zm38,25.854h0q-.166-.212-.335-.423l-.141-.175c2.869-4.738,2.305-9.432,1.808-13.573l0-.015a32.612,32.612,0,0,1-.349-4.812,34.288,34.288,0,0,1,.469-4.306,27.174,27.174,0,0,0,.437-5.333,2.235,2.235,0,0,0,.047-.75c-.181-1.917-2.369-7.651-6.827-12.841A30.506,30.506,0,0,0-3535.3-671.4a36.486,36.486,0,0,1,7.4-.774c.244,0,.493,0,.741.008,8.1.179,14.513,3.21,19.05,9.009,1.742,2.226,1.643,8.431-.258,16.193a85.439,85.439,0,0,1-4.231,12.627,90.444,90.444,0,0,1-6.958,13.325Zm-2.267-3.175v0a13.948,13.948,0,0,1-.74-1.521c-.208-.5-.657-1.309-1.279-2.424l-.005-.009,0-.006c-2.429-4.357-8.117-14.561-5.2-18.724,1.171-1.67,3.768-2.021,5.74-2.021a23.355,23.355,0,0,1,2.858.192,28.647,28.647,0,0,1-.416,3.954,36.339,36.339,0,0,0-.5,4.644,35.028,35.028,0,0,0,.367,5.246c.42,3.5.854,7.108-.818,10.667Zm-2.976-23.377a5.517,5.517,0,0,0-.763.054c-1.173.162-2.31.691-2.215,1.39a2.391,2.391,0,0,0,2.213,1.466,2.3,2.3,0,0,0,.3-.019,2.852,2.852,0,0,0,1.61-.881,1.767,1.767,0,0,0,.6-1.225C-3523.117-647.274-3523.769-647.567-3524.795-647.567Z" transform="translate(3598 678)"/></g></g></svg>