<svg xmlns="http://www.w3.org/2000/svg" width="100" height="99.48" viewBox="0 0 100 99.48">
  <g id="python" transform="translate(-0.145 -0.072)">
    <path id="Path_11" data-name="Path 11" d="M49.785.072c-25.386,0-23.8,11.009-23.8,11.009l.028,11.406H50.237v3.424H16.39S.145,24.069.145,49.683,14.324,74.39,14.324,74.39h8.462V62.5s-.456-14.179,13.952-14.179H60.766s13.5.218,13.5-13.047V13.345S76.315.072,49.785.072ZM36.427,7.742a4.354,4.354,0,1,1-3.083,1.275,4.354,4.354,0,0,1,3.083-1.275Z"/>
    <path id="Path_12" data-name="Path 12" d="M90.662,138.643c25.386,0,23.8-11.009,23.8-11.009l-.028-11.405H90.208V112.8h33.848S140.3,114.647,140.3,89.031s-14.179-24.707-14.179-24.707H117.66V76.211s.456,14.179-13.952,14.179H79.68s-13.5-.218-13.5,13.047V125.37s-2.05,13.273,24.48,13.273Zm13.358-7.669A4.355,4.355,0,1,1,107.1,129.7a4.354,4.354,0,0,1-3.083,1.276Z" transform="translate(-40.156 -39.091)"/>
  </g>
</svg>
