<svg xmlns="http://www.w3.org/2000/svg" width="100" height="88.972" viewBox="0 0 100 88.972">
  <g id="react" transform="translate(-15.243 -14.515)">
    <path id="Subtraction_1" data-name="Subtraction 1" d="M-3963.945-475.244h0c-4.916,0-11.1-2.992-17.414-8.425-.929-.8-1.839-1.632-2.7-2.466-.706.683-1.408,1.331-2.087,1.924a44.466,44.466,0,0,1-9.691,6.6,20.292,20.292,0,0,1-8.689,2.325,9.427,9.427,0,0,1-4.772-1.174c-2.525-1.456-4.29-4.352-5.1-8.373a38.492,38.492,0,0,1,.364-14.387c.232-1.212.5-2.413.786-3.57-.9-.258-1.813-.543-2.7-.845a39.912,39.912,0,0,1-13.279-7.181c-3.276-2.873-5.008-5.986-5.008-9,0-2.915,1.627-5.89,4.7-8.6a38.5,38.5,0,0,1,12.644-6.873c1.161-.4,2.406-.8,3.7-1.163-.277-1.108-.526-2.223-.739-3.313a39.918,39.918,0,0,1-.5-14.665c.781-4.11,2.529-7.057,5.057-8.52a9.259,9.259,0,0,1,4.7-1.166,20.179,20.179,0,0,1,8.842,2.453,47.028,47.028,0,0,1,9.974,6.963c.562.5,1.12,1.015,1.657,1.53.818-.79,1.656-1.558,2.49-2.284a44.957,44.957,0,0,1,9.437-6.477,19.3,19.3,0,0,1,8.361-2.283,9.02,9.02,0,0,1,4.567,1.132c2.644,1.524,4.46,4.632,5.253,8.988a41.957,41.957,0,0,1-.655,15.507c-.151.728-.319,1.466-.5,2.2,1.083.311,2.167.653,3.219,1.015a39.922,39.922,0,0,1,12.939,6.918c3.166,2.735,4.839,5.725,4.839,8.646,0,3.052-1.785,6.178-5.162,9.04a41.952,41.952,0,0,1-13.76,7.179c-.6.2-1.224.393-1.86.58.233.938.435,1.838.6,2.673a39.9,39.9,0,0,1,.439,15.09c-.845,4.274-2.671,7.332-5.282,8.844A9.2,9.2,0,0,1-3963.945-475.244Zm4.784-26.686h0a99.786,99.786,0,0,1-13.544,2.088,100.561,100.561,0,0,1-8.382,10.643c.829.8,1.675,1.571,2.514,2.293,5.384,4.633,10.843,7.4,14.6,7.4a5.055,5.055,0,0,0,2.558-.6c1.534-.888,2.7-3.093,3.274-6.207a36.087,36.087,0,0,0-.481-13.2c-.152-.767-.333-1.581-.541-2.419Zm-49.954.191h0c-.271,1.088-.517,2.2-.73,3.32a36.107,36.107,0,0,0-.515,11.981c.5,3.15,1.631,5.38,3.192,6.28a5.256,5.256,0,0,0,2.643.6,13.367,13.367,0,0,0,4.371-.864,36.139,36.139,0,0,0,11.195-7.008c.653-.572,1.294-1.163,1.9-1.755a103.78,103.78,0,0,1-8.584-10.606,100.583,100.583,0,0,1-13.476-1.95Zm19.017,2.281h0c1.963,2.588,3.988,5.011,6.017,7.2a90.866,90.866,0,0,0,5.87-7.221c-2.009.089-4.04.134-6.036.134s-3.954-.038-5.851-.113Zm-8.1-28.315c-1.508,2.616-2.939,5.328-4.254,8.062,1.31,2.718,2.746,5.429,4.267,8.057s3.169,5.242,4.887,7.752c2.932.189,5.978.285,9.054.285s6.171-.108,9.158-.321c1.676-2.518,3.29-5.122,4.8-7.74s2.963-5.349,4.3-8.095c-1.347-2.713-2.8-5.413-4.312-8.024s-3.128-5.2-4.817-7.694c-3.006-.228-6.076-.344-9.123-.344s-6.1.115-9.105.342c-1.7,2.493-3.333,5.09-4.849,7.719Zm-6.52,13.084h0c-1.271,3.016-2.361,5.987-3.241,8.829a91.209,91.209,0,0,0,9.217,1.481c-1.09-1.691-2.146-3.419-3.14-5.135-.973-1.68-1.927-3.421-2.836-5.175Zm41.03-.154h0c-.928,1.789-1.9,3.571-2.9,5.3-.978,1.7-2.011,3.41-3.07,5.089a90.693,90.693,0,0,0,9.329-1.59,91,91,0,0,0-3.358-8.8Zm-48.359-17.5h0c-1.153.326-2.31.69-3.441,1.083a36.121,36.121,0,0,0-10.637,5.539c-2.481,2-3.847,4.1-3.847,5.9,0,1.771,1.326,3.883,3.733,5.945a36.122,36.122,0,0,0,11.664,6.2c.807.275,1.637.535,2.469.773a103.877,103.877,0,0,1,4.935-12.809,102.217,102.217,0,0,1-4.874-12.629Zm55.66.063a100.174,100.174,0,0,1-4.867,12.484,100.315,100.315,0,0,1,5.064,12.669c.619-.184,1.168-.356,1.679-.525a39.729,39.729,0,0,0,11.71-5.863c2.763-2.15,4.285-4.388,4.285-6.3,0-1.8-1.413-3.9-3.979-5.928a37.686,37.686,0,0,0-10.919-5.6c-.921-.318-1.922-.634-2.972-.939Zm-13.259-2.66c1.052,1.649,2.075,3.331,3.04,5,.994,1.717,1.962,3.468,2.876,5.2a91.044,91.044,0,0,0,3.2-8.611c-2.876-.657-5.944-1.194-9.118-1.594Zm-29.187-.008c-3.174.4-6.225.92-9.066,1.556.87,2.8,1.939,5.714,3.178,8.654.9-1.741,1.847-3.481,2.823-5.172s2.01-3.393,3.066-5.038Zm34.9-25.01h0c-3.819,0-9.415,2.886-14.969,7.72-.785.685-1.559,1.394-2.3,2.109a100.28,100.28,0,0,1,8.453,10.55,102.346,102.346,0,0,1,13.371,2.112c.158-.643.31-1.312.449-1.987a39.723,39.723,0,0,0,.771-13.072c-.481-3.468-1.66-5.9-3.319-6.861a4.873,4.873,0,0,0-2.457-.571Zm-45.806,19.366c.2,1.018.431,2.055.687,3.082a104.2,104.2,0,0,1,13.344-2.075,102.184,102.184,0,0,1,8.518-10.542c-.511-.488-1.016-.955-1.5-1.385a44.075,44.075,0,0,0-8.842-6.23,16.481,16.481,0,0,0-7.109-2.121,5.124,5.124,0,0,0-2.589.6c-1.554.9-2.668,3.178-3.137,6.414a37.687,37.687,0,0,0,.628,12.255Zm25.488.482c1.971,0,3.97.047,5.941.141a91.7,91.7,0,0,0-5.884-7.1c-2,2.161-4,4.551-5.934,7.1C-3988.171-540.06-3986.194-540.106-3984.255-540.106Z" transform="translate(4049.489 578.73)"/>
    <path id="Path_98" data-name="Path 98" d="M116.974,94.665a8.93,8.93,0,1,1-8.93,8.93,8.93,8.93,0,0,1,8.93-8.93" transform="translate(-51.731 -44.679)"/>
  </g>
</svg>
