<svg xmlns="http://www.w3.org/2000/svg" xmlns:xlink="http://www.w3.org/1999/xlink" width="100" height="100" viewBox="0 0 100 100"><defs><clipPath id="b"><rect width="100" height="100"/></clipPath></defs><g id="a" clip-path="url(#b)"><g transform="translate(-10 -73.03)"><g transform="translate(9.999 80.03)"><path d="M109.989,132.639H110v9.969c0,1-1.2,2.092-3.918,3.51-5.337,2.786-32.98,14.153-38.867,17.214s-9.153,3.041-13.806.816-34.071-14.1-39.367-16.643C11.387,146.241,10,145.17,10,144.16V134.048c.041,1.01,1.4,2.071,4.041,3.337,5.3,2.531,34.714,14.418,39.367,16.643s7.918,2.255,13.806-.816S100.744,138.772,106.081,136C108.673,134.66,109.948,133.6,109.989,132.639ZM10,110.548v-10.1c-.01-1,1.255-1.939,3.837-2.939,5.2-2.041,34.459-13.52,40.643-15.735s8.327-2.3,13.592-.367S100.816,94.272,106.02,96.18c2.643.969,3.98,1.847,3.98,2.847h0V109c0,1-1.2,2.092-3.918,3.51-5.337,2.786-32.98,14.153-38.867,17.214s-9.153,3.041-13.806.816-34.071-14.1-39.367-16.643C11.387,112.619,10,111.558,10,110.548Zm58.98-5.469-23.173,3.561,16.173,6.7ZM83.346,93.966l-15.173,6,13.694,5.418,1.48-.582,13.7-5.408ZM49.357,92.16l10,.9,3.133,5.2,1.939-4.673,8.663-.9-6.724-2.51L68.152,85.9l-6.592,2.153-6.98-2.724,2.245,4.133Zm-22.184,7.929c0,2.653,5.541,4.8,12.388,4.8s12.388-2.153,12.388-4.8-5.541-4.8-12.388-4.8S27.173,97.446,27.173,100.088Zm78.908,19.439c-5.337,2.786-32.98,14.153-38.867,17.214s-9.153,3.041-13.806.816-34.071-14.1-39.367-16.643c-2.653-1.265-4-2.337-4.041-3.337V127.69c0,1.01,1.388,2.071,4.041,3.347,5.3,2.531,34.714,14.418,39.367,16.643s7.918,2.255,13.806-.816,33.531-14.439,38.867-17.214c2.714-1.418,3.918-2.51,3.918-3.51V116.17h-.01C109.948,117.109,108.673,118.17,106.081,119.527Z" transform="translate(-9.999 -80.03)"/></g></g></g></svg>