<svg xmlns="http://www.w3.org/2000/svg" width="100" height="89.319" viewBox="0 0 100 89.319">
  <g id="swift" transform="translate(-10.308 -14.838)">
    <path id="Path_77" data-name="Path 77" d="M88.012,38c43.956,29.894,29.738,62.862,29.738,62.862s12.5,14.114,7.448,26.457c0,0-5.156-8.645-13.8-8.645-8.333,0-13.229,8.645-30,8.645-37.342,0-55-31.2-55-31.2,33.644,22.134,56.612,6.458,56.612,6.458C67.856,93.779,35.618,51.7,35.618,51.7,63.69,75.6,75.825,81.9,75.825,81.9c-7.239-5.989-27.551-35.259-27.551-35.259C64.523,63.1,96.813,86.071,96.813,86.071,105.98,60.655,88.012,38,88.012,38Z" transform="translate(-16.092 -23.162)"/>
  </g>
</svg>
